<svg width="100" height="100" viewBox="0 0 100 100" fill="none" xmlns="http://www.w3.org/2000/svg">
<path fill-rule="evenodd" clip-rule="evenodd" d="M81.0138 17.0382C81.378 16.9183 81.7593 16.8571 82.1432 16.8571C84.1156 16.8571 85.7146 18.4374 85.7146 20.3867V72.9489C85.7146 74.4682 84.731 75.817 83.2726 76.2974L58.2726 84.5331C57.9084 84.6531 57.5271 84.7143 57.1432 84.7143C55.1708 84.7143 53.5718 83.134 53.5718 81.1847V28.6225C53.5718 27.1032 54.5555 25.7544 56.0138 25.274L81.0138 17.0382Z" fill="#0BBDF3"/>
<path fill-rule="evenodd" clip-rule="evenodd" d="M18.9866 17.0382L43.9866 25.274C45.4449 25.7544 46.4286 27.1032 46.4286 28.6225V81.1847C46.4286 83.134 44.8296 84.7143 42.8572 84.7143C42.4733 84.7143 42.092 84.6531 41.7278 84.5331L16.7278 76.2974C15.2694 75.817 14.2858 74.4682 14.2858 72.9489V20.3867C14.2858 18.4374 15.8847 16.8571 17.8572 16.8571C18.2411 16.8571 18.6224 16.9183 18.9866 17.0382Z" fill="#0BBDF3"/>
</svg>
