<svg width="100" height="100" viewBox="0 0 100 100" fill="none" xmlns="http://www.w3.org/2000/svg">
<path d="M84.3319 74.5655C84.3319 74.5655 79.5392 69.7744 76.6576 66.8945L66.9153 76.6368L74.5924 84.3106C78.0419 87.77 82.5178 85.554 84.043 84.0239C86.3643 81.724 87.173 77.4153 84.3358 74.5694C84.3347 74.5683 84.3336 74.5672 84.3319 74.5655Z" fill="#0BBDF3"/>
<path d="M74.9724 54.1439C72.6309 51.8024 68.8343 51.8024 66.4927 54.1439L54.166 66.4707C51.8244 68.8122 51.8244 72.6088 54.166 74.9504C56.5075 77.292 60.3036 77.292 62.6451 74.9504L74.9724 62.6231C77.314 60.2815 77.314 56.4855 74.9724 54.1439Z" fill="#0BBDF3"/>
<path d="M16.0994 74.5655C16.0977 74.5672 16.0966 74.5683 16.0955 74.5688C13.2584 77.4153 14.067 81.7234 16.3883 84.0239C17.9135 85.554 22.3894 87.7695 25.839 84.31L33.516 76.6362L23.7737 66.8945C20.8921 69.7744 16.0994 74.5655 16.0994 74.5655Z" fill="#0BBDF3"/>
<path d="M32.9864 47.2382L47.2381 32.9865L29.1542 14.9027C28.76 14.5074 28.2244 14.2859 27.6657 14.2859H16.391C15.2282 14.2859 14.2858 15.2283 14.2858 16.3912V27.6658C14.2858 28.2245 14.5073 28.7601 14.9025 29.1543L32.9864 47.2382Z" fill="#0BBDF3"/>
<path d="M86.1451 27.6658V16.3912C86.1451 15.2283 85.2027 14.2859 84.0399 14.2859H72.7652C72.2066 14.2859 71.6715 14.5074 71.2767 14.9027L35.9631 50.2157L50.2153 64.4679L85.5284 29.1549C85.9237 28.7601 86.1451 28.2245 86.1451 27.6658Z" fill="#0BBDF3"/>
<path d="M33.9382 54.1439C31.5966 51.8024 27.8 51.8024 25.4584 54.1439C23.1169 56.4855 23.1169 60.2815 25.4584 62.6231L37.7852 74.9504C40.1267 77.292 43.9233 77.292 46.2649 74.9504C48.6065 72.6088 48.6065 68.8122 46.2649 66.4707L33.9382 54.1439Z" fill="#0BBDF3"/>
</svg>
