<svg width="71" height="71" viewBox="0 0 71 71" fill="none" xmlns="http://www.w3.org/2000/svg">
<path d="M43.7716 10.3C43.9782 12.9822 43.1251 15.6389 41.3936 17.7057C39.7138 19.7833 37.1684 20.98 34.4877 20.9526C34.3172 18.3476 35.1951 15.7821 36.9279 13.8211C38.6828 11.8335 41.1263 10.5763 43.7716 10.3Z" fill="#46494E"/>
<path d="M52.2495 26.0602C49.1658 27.9454 47.2682 31.27 47.2215 34.8692C47.2259 38.9413 49.6784 42.6162 53.45 44.2025C52.7247 46.5456 51.6313 48.76 50.2103 50.7635C48.302 53.602 46.3013 56.3751 43.1257 56.4263C41.6154 56.461 40.5959 56.0292 39.5335 55.5792C38.4255 55.1098 37.2708 54.6207 35.4639 54.6207C33.5476 54.6207 32.3412 55.1255 31.1777 55.6124C30.1723 56.0332 29.1988 56.4406 27.8269 56.4972C24.8026 56.6085 22.4913 53.4676 20.5137 50.6558C16.561 44.9134 13.4832 34.4729 17.6095 27.369C19.5471 23.9066 23.1701 21.7095 27.1529 21.5815C28.8681 21.5464 30.514 22.2038 31.957 22.7802C33.0606 23.2209 34.0455 23.6143 34.852 23.6143C35.5609 23.6143 36.5184 23.2365 37.6342 22.7961C39.3918 22.1025 41.5424 21.2537 43.734 21.4825C47.1394 21.5884 50.2953 23.2849 52.2495 26.0602Z" fill="#46494E"/>
</svg>
