<svg width="224" height="41" viewBox="0 0 224 41" fill="none" xmlns="http://www.w3.org/2000/svg">
<path d="M20.375 0.375L25.6981 13.1733L39.515 14.281L28.988 23.2985L32.2042 36.7815L20.375 29.5562L8.54582 36.7815L11.762 23.2985L1.23499 14.281L15.0519 13.1733L20.375 0.375Z" fill="#FFD600"/>
<path d="M66.375 0.375L71.6981 13.1733L85.515 14.281L74.988 23.2985L78.2042 36.7815L66.375 29.5562L54.5458 36.7815L57.762 23.2985L47.235 14.281L61.0519 13.1733L66.375 0.375Z" fill="#FFD600"/>
<path d="M112.375 0.375L117.698 13.1733L131.515 14.281L120.988 23.2985L124.204 36.7815L112.375 29.5562L100.546 36.7815L103.762 23.2985L93.235 14.281L107.052 13.1733L112.375 0.375Z" fill="#FFD600"/>
<path d="M158.375 0.375L163.698 13.1733L177.515 14.281L166.988 23.2985L170.204 36.7815L158.375 29.5562L146.546 36.7815L149.762 23.2985L139.235 14.281L153.052 13.1733L158.375 0.375Z" fill="#FFD600"/>
<path d="M209.698 13.1733L204.375 0.375V29.5563L216.204 36.7815L212.988 23.2985L223.515 14.281L209.698 13.1733Z" fill="#E6EBF0"/>
<path d="M192.546 36.7815L204.375 29.5563V0.375L199.052 13.1733L185.235 14.281L195.762 23.2985L192.546 36.7815Z" fill="#FFD600"/>
</svg>
