<svg width="225" height="41" viewBox="0 0 225 41" fill="none" xmlns="http://www.w3.org/2000/svg">
<path d="M20.125 0.375L25.4481 13.1733L39.265 14.281L28.738 23.2985L31.9542 36.7815L20.125 29.5562L8.29582 36.7815L11.512 23.2985L0.984987 14.281L14.8019 13.1733L20.125 0.375Z" fill="#FFD600"/>
<path d="M66.125 0.375L71.4481 13.1733L85.265 14.281L74.738 23.2985L77.9542 36.7815L66.125 29.5562L54.2958 36.7815L57.512 23.2985L46.985 14.281L60.8019 13.1733L66.125 0.375Z" fill="#FFD600"/>
<path d="M112.125 0.375L117.448 13.1733L131.265 14.281L120.738 23.2985L123.954 36.7815L112.125 29.5562L100.296 36.7815L103.512 23.2985L92.985 14.281L106.802 13.1733L112.125 0.375Z" fill="#FFD600"/>
<path d="M158.125 0.375L163.448 13.1733L177.265 14.281L166.738 23.2985L169.954 36.7815L158.125 29.5562L146.296 36.7815L149.512 23.2985L138.985 14.281L152.802 13.1733L158.125 0.375Z" fill="#FFD600"/>
<path d="M204.125 0.375L209.448 13.1733L223.265 14.281L212.738 23.2985L215.954 36.7815L204.125 29.5562L192.296 36.7815L195.512 23.2985L184.985 14.281L198.802 13.1733L204.125 0.375Z" fill="#FFD600"/>
</svg>
