<svg width="120" height="120" viewBox="0 0 120 120" fill="none" xmlns="http://www.w3.org/2000/svg">
<path fill-rule="evenodd" clip-rule="evenodd" d="M84.5998 60.4702L78.2867 64.3262C77.8823 64.5732 77.3809 64.2089 77.4908 63.7479L79.2073 56.5523L73.5892 51.7398C73.2293 51.4316 73.4208 50.8421 73.8932 50.8042L81.267 50.2131L84.1079 43.3828C84.2899 42.9453 84.9097 42.9453 85.0916 43.3828L87.9325 50.2131L95.3063 50.8042C95.7787 50.8421 95.9702 51.4316 95.6103 51.7398L89.9922 56.5523L91.7087 63.7479C91.8186 64.2089 91.3172 64.5732 90.9128 64.3262L84.5998 60.4702Z" fill="#0BBDF3"/>
<path fill-rule="evenodd" clip-rule="evenodd" d="M60.6 42.4702L54.287 46.3262C53.8826 46.5732 53.3811 46.2089 53.4911 45.7479L55.2075 38.5523L49.5894 33.7398C49.2295 33.4316 49.4211 32.8421 49.8934 32.8042L57.2673 32.2131L60.1081 25.3828C60.2901 24.9453 60.9099 24.9453 61.0919 25.3828L63.9327 32.2131L71.3066 32.8042C71.7789 32.8421 71.9705 33.4316 71.6106 33.7398L65.9925 38.5523L67.7089 45.7479C67.8189 46.2089 67.3174 46.5732 66.913 46.3262L60.6 42.4702Z" fill="#0BBDF3"/>
<path fill-rule="evenodd" clip-rule="evenodd" d="M75 89.27L68.687 93.126C68.2826 93.373 67.7812 93.0087 67.8911 92.5477L69.6075 85.3521L63.9894 80.5396C63.6296 80.2314 63.8211 79.6419 64.2934 79.604L71.6673 79.0129L74.5082 72.1826C74.6901 71.7451 75.3099 71.7451 75.4919 72.1826L78.3328 79.0129L85.7066 79.604C86.179 79.6419 86.3705 80.2314 86.0106 80.5396L80.3925 85.3521L82.1089 92.5477C82.2189 93.0087 81.7175 93.373 81.3131 93.126L75 89.27Z" fill="#0BBDF3"/>
<path fill-rule="evenodd" clip-rule="evenodd" d="M46.2 89.27L39.8869 93.126C39.4825 93.373 38.9811 93.0087 39.0911 92.5477L40.8075 85.3521L35.1894 80.5396C34.8295 80.2314 35.021 79.6419 35.4934 79.604L42.8672 79.0129L45.7081 72.1826C45.8901 71.7451 46.5099 71.7451 46.6919 72.1826L49.5327 79.0129L56.9066 79.604C57.3789 79.6419 57.5704 80.2314 57.2106 80.5396L51.5925 85.3521L53.3089 92.5477C53.4188 93.0087 52.9174 93.373 52.513 93.126L46.2 89.27Z" fill="#0BBDF3"/>
<path fill-rule="evenodd" clip-rule="evenodd" d="M36.6 60.4702L30.287 64.3262C29.8826 64.5732 29.3811 64.2089 29.4911 63.7479L31.2075 56.5523L25.5894 51.7398C25.2295 51.4316 25.4211 50.8421 25.8934 50.8042L33.2673 50.2131L36.1081 43.3828C36.2901 42.9453 36.9099 42.9453 37.0919 43.3828L39.9327 50.2131L47.3066 50.8042C47.7789 50.8421 47.9705 51.4316 47.6106 51.7398L41.9925 56.5523L43.7089 63.7479C43.8189 64.2089 43.3174 64.5732 42.913 64.3262L36.6 60.4702Z" fill="#0BBDF3"/>
</svg>
