<svg width="120" height="120" viewBox="0 0 120 120" fill="none" xmlns="http://www.w3.org/2000/svg">
<circle cx="60" cy="60" r="36" fill="#0BBDF3"/>
<path fill-rule="evenodd" clip-rule="evenodd" d="M59.9995 33.5996C60.5396 33.5996 60.9773 34.0374 60.9773 34.5774V37.5107C60.9773 38.0508 60.5396 38.4885 59.9995 38.4885C59.4595 38.4885 59.0218 38.0508 59.0218 37.5107V34.5774C59.0218 34.0374 59.4595 33.5996 59.9995 33.5996ZM59.9995 81.5104C60.5396 81.5104 60.9773 81.9482 60.9773 82.4882V85.4215C60.9773 85.9615 60.5396 86.3993 59.9995 86.3993C59.4595 86.3993 59.0218 85.9615 59.0218 85.4215V82.4882C59.0218 81.9482 59.4595 81.5104 59.9995 81.5104ZM82.4883 59.0218H85.4216C85.9617 59.0218 86.3994 59.4596 86.3994 59.9996C86.3994 60.5396 85.9617 60.9774 85.4216 60.9774H82.4883C81.9483 60.9774 81.5105 60.5396 81.5105 59.9996C81.5105 59.4596 81.9483 59.0218 82.4883 59.0218ZM34.5772 59.0218H37.5106C38.0506 59.0218 38.4883 59.4596 38.4883 59.9996C38.4883 60.5396 38.0506 60.9774 37.5106 60.9774H34.5772C34.0372 60.9774 33.5994 60.5396 33.5994 59.9996C33.5994 59.4596 34.0372 59.0218 34.5772 59.0218ZM82.8619 46.799C83.1319 47.2666 82.9717 47.8646 82.504 48.1347L79.9637 49.6013C79.496 49.8713 78.898 49.7111 78.628 49.2434C78.358 48.7758 78.5182 48.1778 78.9859 47.9078L81.5263 46.4411C81.9939 46.1711 82.5919 46.3313 82.8619 46.799ZM41.3703 70.7566C41.6403 71.2243 41.4801 71.8223 41.0124 72.0923L38.4721 73.559C38.0044 73.829 37.4064 73.6688 37.1364 73.2011C36.8664 72.7334 37.0266 72.1354 37.4943 71.8654L40.0347 70.3987C40.5023 70.1287 41.1003 70.289 41.3703 70.7566ZM72.0921 78.9861L73.5587 81.5265C73.8287 81.9941 73.6685 82.5922 73.2008 82.8622C72.7332 83.1322 72.1352 82.9719 71.8652 82.5043L70.3985 79.9639C70.1285 79.4962 70.2887 78.8982 70.7564 78.6282C71.224 78.3582 71.8221 78.5185 72.0921 78.9861ZM48.1347 37.4943L49.6014 40.0346C49.8714 40.5023 49.7112 41.1003 49.2435 41.3703C48.7758 41.6403 48.1778 41.4801 47.9078 41.0124L46.4411 38.4721C46.1711 38.0044 46.3314 37.4064 46.799 37.1364C47.2667 36.8664 47.8647 37.0266 48.1347 37.4943ZM73.2008 37.1364C73.6685 37.4064 73.8287 38.0044 73.5587 38.4721L72.0921 41.0124C71.8221 41.4801 71.224 41.6403 70.7564 41.3703C70.2887 41.1003 70.1285 40.5023 70.3985 40.0346L71.8652 37.4943C72.1352 37.0266 72.7332 36.8664 73.2008 37.1364ZM49.2435 78.6282C49.7112 78.8982 49.8714 79.4962 49.6014 79.9639L48.1347 82.5043C47.8647 82.9719 47.2667 83.1322 46.799 82.8622C46.3314 82.5922 46.1711 81.9941 46.4411 81.5265L47.9078 78.9861C48.1778 78.5185 48.7758 78.3582 49.2435 78.6282ZM79.9637 70.3987L82.504 71.8654C82.9717 72.1354 83.1319 72.7334 82.8619 73.2011C82.5919 73.6688 81.9939 73.829 81.5263 73.559L78.9859 72.0923C78.5182 71.8223 78.358 71.2243 78.628 70.7566C78.898 70.289 79.496 70.1287 79.9637 70.3987ZM38.4721 46.4411L41.0124 47.9078C41.4801 48.1778 41.6403 48.7758 41.3703 49.2434C41.1003 49.7111 40.5023 49.8713 40.0347 49.6013L37.4943 48.1347C37.0266 47.8646 36.8664 47.2666 37.1364 46.799C37.4064 46.3313 38.0044 46.1711 38.4721 46.4411Z" fill="white"/>
<path fill-rule="evenodd" clip-rule="evenodd" d="M63.1701 56.542C63.1701 56.542 73.5182 54.5947 73.3291 55.6931C73.14 56.7915 61.1592 61.4848 61.1592 61.4848C60.7992 61.4198 59.2207 61.2325 58.6762 59.7365C58.6762 59.7365 64.8664 39.2 65.9063 38.8215C66.9463 38.443 63.1701 56.542 63.1701 56.542Z" fill="white"/>
</svg>
