<svg width="120" height="120" viewBox="0 0 120 120" fill="none" xmlns="http://www.w3.org/2000/svg">
<ellipse cx="60" cy="41.6156" rx="10.8" ry="10.3138" fill="#0BBDF3"/>
<ellipse cx="38.4" cy="49.6376" rx="8.4" ry="8.02185" fill="#0BBDF3"/>
<ellipse cx="81.6" cy="49.6376" rx="8.4" ry="8.02185" fill="#0BBDF3"/>
<path d="M45.6 64.5137C45.6 60.0954 49.1817 56.5137 53.6 56.5137H66.4C70.8183 56.5137 74.4 60.0954 74.4 64.5137V82.0167C74.4 83.1213 73.5046 84.0167 72.4 84.0167H47.6C46.4954 84.0167 45.6 83.1213 45.6 82.0167V64.5137Z" fill="#0BBDF3"/>
<path d="M27.6 70.2441C27.6 65.8259 31.1817 62.2441 35.6 62.2441H37.6C38.7046 62.2441 39.6 63.1396 39.6 64.2441V82.0171C39.6 83.1217 38.7046 84.0171 37.6 84.0171H30.6C28.9432 84.0171 27.6 82.674 27.6 81.0171V70.2441Z" fill="#0BBDF3"/>
<path d="M79.2 64.2441C79.2 63.1396 80.0954 62.2441 81.2 62.2441H83.2C87.6183 62.2441 91.2 65.8259 91.2 70.2441V81.0171C91.2 82.674 89.8569 84.0171 88.2 84.0171H81.2C80.0954 84.0171 79.2 83.1217 79.2 82.0171V64.2441Z" fill="#0BBDF3"/>
</svg>
