<svg width="24" height="24" viewBox="0 0 24 24" fill="none" xmlns="http://www.w3.org/2000/svg">
<path d="M0 12C0 6.34315 0 3.51472 1.75736 1.75736C3.51472 0 6.34315 0 12 0C17.6569 0 20.4853 0 22.2426 1.75736C24 3.51472 24 6.34315 24 12C24 17.6569 24 20.4853 22.2426 22.2426C20.4853 24 17.6569 24 12 24C6.34315 24 3.51472 24 1.75736 22.2426C0 20.4853 0 17.6569 0 12Z" fill="#1778F2"/>
<path fill-rule="evenodd" clip-rule="evenodd" d="M13.0326 9.89738H15L14.7963 11.8739H12.9877V17.25H10.6235V11.8739H9V9.89738H10.5287C10.5274 9.71164 10.5198 8.23373 10.6316 7.91079C10.6329 7.90518 10.635 7.89956 10.6362 7.89394C10.6371 7.89314 10.6371 7.89234 10.6371 7.89194C11.3481 5.31042 14.9284 6.11556 14.9915 6.1296H14.9928V6.13001H14.9932V7.85543L14.9936 7.86346L14.9932 7.93526C14.9932 7.93526 13.1618 7.73588 13.0326 8.78614V9.89738Z" fill="white"/>
</svg>
