<svg width="24" height="24" viewBox="0 0 24 24" fill="none" xmlns="http://www.w3.org/2000/svg">
<path d="M0 12C0 6.34315 0 3.51472 1.75736 1.75736C3.51472 0 6.34315 0 12 0C17.6569 0 20.4853 0 22.2426 1.75736C24 3.51472 24 6.34315 24 12C24 17.6569 24 20.4853 22.2426 22.2426C20.4853 24 17.6569 24 12 24C6.34315 24 3.51472 24 1.75736 22.2426C0 20.4853 0 17.6569 0 12Z" fill="#8134AF"/>
<path d="M12 6C8.69155 6 6 8.69155 6 12C6 15.3083 8.69155 17.9997 12 17.9997C15.3084 17.9997 18 15.3083 18 12C18 8.69155 15.3084 6 12 6Z" fill="white"/>
<path d="M12 15.9997C9.79449 15.9997 8 14.2055 8 12C8 9.79435 9.79435 8 12 8C14.2057 8 16 9.79435 16 12C16 14.2055 14.2055 15.9997 12 15.9997Z" fill="#8134AF"/>
<path d="M18.5 4C18.1059 4 17.7188 4.15955 17.4405 4.43909C17.1608 4.71727 17 5.10455 17 5.5C17 5.89423 17.1609 6.28136 17.4405 6.56091C17.7186 6.83909 18.1059 7 18.5 7C18.8955 7 19.2814 6.83909 19.5609 6.56091C19.8405 6.28136 20 5.89409 20 5.5C20 5.10455 19.8405 4.71727 19.5609 4.43909C19.2827 4.15955 18.8955 4 18.5 4Z" fill="white"/>
</svg>
