<svg width="150" height="50" viewBox="0 0 150 50" fill="none" xmlns="http://www.w3.org/2000/svg">
<rect width="149.091" height="50" rx="7.88462" fill="#AAB1BA"/>
<path d="M31.2044 24.8594C31.2328 22.6542 32.3874 20.6173 34.2637 19.4623C33.0747 17.7619 31.1545 16.7225 29.0824 16.6576C26.9024 16.4285 24.789 17.9637 23.6781 17.9637C22.5457 17.9637 20.8353 16.6803 18.9935 16.7183C16.5702 16.7967 14.3657 18.1428 13.1867 20.2642C10.6761 24.6167 12.5488 31.0134 14.9539 34.5317C16.1572 36.2544 17.5635 38.1788 19.4036 38.1106C21.2043 38.0358 21.8768 36.9609 24.0504 36.9609C26.2038 36.9609 26.8348 38.1106 28.7123 38.0672C30.6445 38.0358 31.8619 36.3368 33.023 34.5977C33.8875 33.3701 34.5528 32.0134 34.9942 30.5778C32.6993 29.6059 31.2071 27.3543 31.2044 24.8594Z" fill="white"/>
<path d="M27.6608 14.345C28.7143 13.0786 29.2334 11.451 29.1077 9.80762C27.4981 9.97689 26.0114 10.7471 24.9436 11.9649C23.8892 13.1664 23.3551 14.7382 23.4588 16.3343C25.09 16.3511 26.6387 15.6179 27.6608 14.345Z" fill="white"/>
<path fill-rule="evenodd" clip-rule="evenodd" d="M46.9003 33.9246H52.8095L54.2273 38.1202H56.7729L51.1758 22.5977H48.5754L42.9783 38.1202H45.4812L46.9003 33.9246ZM52.1964 31.9872H47.5125L49.8227 25.1781H49.8874L52.1964 31.9872Z" fill="white"/>
<path fill-rule="evenodd" clip-rule="evenodd" d="M64.1455 38.2401C66.9824 38.2401 68.8623 35.9806 68.8623 32.4638C68.8623 28.9567 66.9715 26.6862 64.1028 26.6862C62.6267 26.6385 61.244 27.4072 60.5039 28.6869H60.4612V26.8046H58.2156V41.8656H60.5356V36.2601H60.5893C61.2979 37.5479 62.6791 38.3169 64.1455 38.2401ZM63.4876 28.6645C65.292 28.6645 66.4745 30.1709 66.4745 32.4621H66.4745C66.4745 34.7741 65.292 36.2695 63.4876 36.2695C61.715 36.2695 60.5227 34.7424 60.5227 32.4621C60.5227 30.2026 61.715 28.6645 63.4876 28.6645Z" fill="white"/>
<path fill-rule="evenodd" clip-rule="evenodd" d="M76.5842 38.2401C79.4212 38.2401 81.3017 35.9806 81.3017 32.4638C81.3017 28.9567 79.4102 26.6862 76.5415 26.6862C75.0654 26.6385 73.6827 27.4072 72.9426 28.6869H72.9V26.8046H70.6543V41.8656H72.9743V36.2601H73.028C73.7366 37.5479 75.1178 38.3169 76.5842 38.2401ZM75.9304 28.6645C77.7348 28.6645 78.9173 30.1709 78.9173 32.4621C78.9173 34.7741 77.7348 36.2695 75.9304 36.2695C74.1578 36.2695 72.9655 34.7424 72.9655 32.4621C72.9655 30.2026 74.1578 28.6645 75.9304 28.6645Z" fill="white"/>
<path d="M89.5217 33.7947C89.6936 35.3341 91.187 36.3447 93.2278 36.3447C95.1833 36.3447 96.5902 35.334 96.5902 33.9461C96.5902 32.7412 95.7417 32.0198 93.7326 31.5254L91.7234 31.0408C88.8768 30.3523 87.5552 29.0193 87.5552 26.8562C87.5552 24.178 89.8862 22.3384 93.1949 22.3384C96.472 22.3384 98.7176 24.178 98.7932 26.8562H96.4512C96.311 25.3071 95.0322 24.3721 93.1632 24.3721C91.2943 24.3721 90.0154 25.3181 90.0154 26.6951C90.0154 27.7925 90.8322 28.4382 92.8304 28.9326L94.5384 29.3525C97.7191 30.1057 99.0395 31.385 99.0395 33.6555C99.0395 36.5595 96.7304 38.3784 93.0559 38.3784C89.6179 38.3784 87.2967 36.6023 87.1467 33.7946L89.5217 33.7947Z" fill="white"/>
<path d="M104.047 24.125V26.8032H106.196V28.6428H104.047V34.8818C104.047 35.8511 104.477 36.3027 105.422 36.3027C105.677 36.2983 105.932 36.2803 106.186 36.249V38.0776C105.761 38.1571 105.329 38.1931 104.897 38.185C102.609 38.185 101.716 37.3244 101.716 35.1296V28.6428H100.073V26.8032H101.716V24.125H104.047Z" fill="white"/>
<path fill-rule="evenodd" clip-rule="evenodd" d="M112.804 26.6641C109.538 26.6641 107.444 28.9016 107.444 32.4624C107.444 36.0329 109.518 38.2607 112.804 38.2607C116.092 38.2607 118.166 36.033 118.166 32.4624C118.166 28.9016 116.082 26.6641 112.804 26.6641ZM112.8 28.5788C114.68 28.5788 115.798 30.0205 115.798 32.4631H115.798C115.798 34.9155 114.68 36.3462 112.8 36.3462C110.92 36.3462 109.803 34.9155 109.803 32.4631C109.803 30.0315 110.92 28.5788 112.8 28.5788Z" fill="white"/>
<path d="M120.078 26.8045H122.291V28.7307H122.344C122.653 27.4907 123.788 26.6373 125.063 26.6861C125.33 26.6851 125.597 26.7142 125.858 26.7727V28.9456C125.52 28.8423 125.168 28.7949 124.816 28.8052C124.133 28.7775 123.473 29.0497 123.009 29.5503C122.544 30.0509 122.321 30.7299 122.398 31.409V38.1216H120.078L120.078 26.8045Z" fill="white"/>
<path fill-rule="evenodd" clip-rule="evenodd" d="M131.686 38.2607C134.243 38.2607 136.241 36.8508 136.553 34.7964L134.35 34.7964C133.927 35.8465 132.866 36.4938 131.74 36.3882C130.896 36.4193 130.079 36.0858 129.497 35.4725C128.916 34.8591 128.625 34.0252 128.7 33.1826V33.0422H136.682V32.2463C136.682 28.8149 134.716 26.6641 131.589 26.6641C128.409 26.6641 126.358 28.9663 126.358 32.5161C126.358 36.0549 128.398 38.2607 131.686 38.2607ZM134.362 31.4173L128.711 31.4173C128.709 30.6532 129.012 29.92 129.553 29.3806C130.093 28.8413 130.826 28.5404 131.59 28.545C132.347 28.5287 133.076 28.8294 133.602 29.3746C134.129 29.9199 134.404 30.6602 134.362 31.4173Z" fill="white"/>
<path d="M45.863 14.0692H46.859C47.2057 14.1124 47.5546 14.0085 47.8213 13.7827C48.0881 13.5569 48.2484 13.2297 48.2635 12.8802C48.2635 12.1924 47.7466 11.748 46.87 11.748C46.5151 11.6984 46.1552 11.7945 45.8722 12.0145C45.5891 12.2345 45.4068 12.5597 45.3668 12.9162H44.2732C44.3113 12.2686 44.6163 11.666 45.1154 11.2523C45.6145 10.8387 46.2628 10.6512 46.9053 10.7348C48.372 10.7348 49.4046 11.557 49.4046 12.7405C49.4117 13.5575 48.8478 14.2684 48.0514 14.4464V14.5343C49.0052 14.5766 49.7456 15.3826 49.7082 16.3379C49.6397 17.0042 49.3061 17.6149 48.7826 18.0321C48.2592 18.4493 47.59 18.6379 46.9261 18.5553C46.2607 18.6461 45.5869 18.4624 45.0594 18.0463C44.5318 17.6301 44.1957 17.0173 44.1282 16.3483H45.2388C45.3059 17.0618 45.9605 17.522 46.9261 17.522C47.8916 17.522 48.5219 17.005 48.5219 16.2763C48.5219 15.5371 47.9282 15.0818 46.8907 15.0818H45.863V14.0692Z" fill="white"/>
<path fill-rule="evenodd" clip-rule="evenodd" d="M53.0607 15.0985C51.7245 15.1815 50.9698 15.7656 50.9698 16.7788C50.9717 17.2592 51.1765 17.7164 51.5335 18.0373C51.8905 18.3583 52.3665 18.513 52.8437 18.4633C53.5244 18.4949 54.1695 18.1572 54.5322 17.5796H54.62V18.3706H55.6891V14.5248C55.6891 13.3358 54.8943 12.6333 53.4849 12.6333C52.2097 12.6333 51.3002 13.2534 51.1869 14.2202H52.2609C52.3853 13.8223 52.8132 13.5946 53.4325 13.5946C54.192 13.5946 54.5834 13.9303 54.5834 14.5248V15.0106L53.0607 15.0985ZM54.5834 15.8304V16.301C54.5592 16.6597 54.3905 16.9932 54.1161 17.2252C53.8417 17.4571 53.4851 17.5676 53.1278 17.5314C52.5243 17.5314 52.0854 17.2366 52.0854 16.73C52.0854 16.2338 52.4365 15.9701 53.2106 15.9183L54.5834 15.8304Z" fill="white"/>
<path d="M58.6347 13.6792V18.3728H57.5253V12.7441H61.2266V13.6791L58.6347 13.6792Z" fill="white"/>
<path fill-rule="evenodd" clip-rule="evenodd" d="M65.6272 18.4648C67.0463 18.4648 67.9497 17.3436 67.9497 15.5552C67.9497 13.7663 67.0463 12.65 65.6163 12.65C64.8825 12.6319 64.2005 13.0273 63.8509 13.6736H63.768V12.7434H62.7001V20.2434H63.8095V17.5194H63.8973C64.2412 18.1446 64.916 18.5134 65.6272 18.4648ZM65.3073 13.647C66.2473 13.647 66.8093 14.3654 66.8093 15.5543C66.8093 16.7482 66.2473 17.4666 65.3025 17.4666C64.3735 17.4666 63.7895 16.7323 63.7895 15.5592C63.7895 14.3806 64.3735 13.647 65.3073 13.647Z" fill="white"/>
<path d="M69.4284 20.3888V19.4324C69.5484 19.4477 69.6694 19.4546 69.7904 19.4531C70.2799 19.4894 70.7181 19.1509 70.8072 18.6676L70.8901 18.3936L68.8553 12.7441H70.0635L71.4729 17.215H71.5607L72.9651 12.7441H74.1416L72.0459 18.6054C71.5656 19.975 71.034 20.4144 69.888 20.4144C69.7954 20.4144 69.532 20.4041 69.4284 20.3888Z" fill="white"/>
<path d="M75.0057 16.7763H76.1103C76.2188 17.2726 76.6833 17.5313 77.3331 17.5313C78.0719 17.5313 78.5254 17.2054 78.5254 16.6988C78.5254 16.1562 78.1182 15.8975 77.3331 15.8975H76.4919V15.0344H77.3184C77.989 15.0344 78.3303 14.7762 78.3303 14.3057C78.3303 13.8925 77.9999 13.5769 77.3184 13.5769C76.6979 13.5769 76.2444 13.8406 76.1724 14.2849H75.1033C75.2696 13.2228 76.2547 12.4896 77.3184 12.6364C78.6546 12.6364 79.419 13.2412 79.419 14.1922C79.4319 14.7379 79.0619 15.2183 78.5315 15.3445V15.4324C79.1657 15.5143 79.6383 16.0586 79.6312 16.6989C79.6312 17.7689 78.7217 18.4768 77.3331 18.4768C76.1054 18.4768 75.1082 17.9134 75.0057 16.7763Z" fill="white"/>
<path d="M81.2271 18.3728V12.7441H82.3267V16.6156H82.4145L85.0052 12.7442H86.1048V18.3728H85.0052V14.4806H84.9223L82.3267 18.3728L81.2271 18.3728Z" fill="white"/>
<path d="M92.1645 13.6791H90.3943V18.3727H89.2837V13.6791H87.5134V12.7441H92.1645V13.6791Z" fill="white"/>
<path fill-rule="evenodd" clip-rule="evenodd" d="M95.7044 18.4793C96.8032 18.5983 97.8294 17.9126 98.1414 16.8509L97.0723 16.8509C96.8063 17.3286 96.2785 17.5982 95.7361 17.5333C95.3174 17.5383 94.916 17.3661 94.6309 17.059C94.3458 16.7519 94.2034 16.3385 94.239 15.9208V15.8585H98.2085V15.4709C98.2085 13.7034 97.2636 12.6334 95.6995 12.6334C94.948 12.627 94.2307 12.9474 93.7334 13.5116C93.2361 14.0758 93.0078 14.8282 93.1076 15.5741C93.0051 16.3178 93.2343 17.0691 93.7343 17.6286C94.2344 18.1881 94.9548 18.4992 95.7044 18.4793ZM97.0743 15.0399H94.2361C94.2307 14.6516 94.3823 14.2777 94.6564 14.003C94.9306 13.7284 95.304 13.5765 95.6918 13.5817C96.074 13.5732 96.4421 13.7267 96.7054 14.0044C96.9686 14.282 97.1026 14.6581 97.0743 15.0399Z" fill="white"/>
<path fill-rule="evenodd" clip-rule="evenodd" d="M102.844 12.7441H105.379C106.479 12.7441 107.124 13.302 107.124 14.1754C107.127 14.7465 106.731 15.2423 106.174 15.3644V15.4522C106.856 15.4954 107.384 16.0659 107.376 16.7499C107.376 17.7319 106.638 18.3728 105.405 18.3728H102.844V12.7441ZM103.942 13.5963V15.0538H105.042C105.713 15.0538 106.033 14.7956 106.033 14.3195C106.033 13.8807 105.754 13.5962 105.165 13.5962L103.942 13.5963ZM103.942 17.5193V15.8701L105.119 15.8701C105.867 15.8701 106.265 16.1338 106.265 16.6971C106.265 17.2294 105.914 17.5193 105.258 17.5193H103.942Z" fill="white"/>
</svg>
