<svg width="171" height="50" viewBox="0 0 171 50" fill="none" xmlns="http://www.w3.org/2000/svg">
<rect x="0.0908203" width="170" height="50" rx="7.85714" fill="#AAB1BA"/>
<path fill-rule="evenodd" clip-rule="evenodd" d="M60.2088 28.8259V31.0759H65.6488C65.5635 32.1357 65.1197 33.1356 64.3895 33.9134C63.286 35.0295 61.7577 35.6291 60.1836 35.5634C56.8454 35.5634 54.1392 32.8771 54.1392 29.5634C54.1392 26.2497 56.8454 23.5634 60.1836 23.5634C61.7205 23.5407 63.2044 24.1201 64.314 25.1759L65.9132 23.5884C64.3971 22.0998 62.341 21.2799 60.2088 21.3134C57.1601 21.1956 54.2908 22.743 52.7311 25.346C51.1715 27.949 51.1715 31.1903 52.7311 33.7933C54.2908 36.3963 57.1601 37.9437 60.2088 37.8259C62.3876 37.9123 64.4998 37.0709 66.014 35.5134C67.3364 34.0714 68.041 32.1749 67.9784 30.2259C67.9829 29.7568 67.945 29.2883 67.8651 28.8259H60.2088ZM74.1619 27.1863C71.1992 27.1932 68.8031 29.5828 68.8101 32.5237C68.817 35.4646 71.2244 37.8431 74.1871 37.8362C77.1498 37.8293 79.5459 35.4397 79.5389 32.4988C79.5597 31.0792 78.999 29.7121 77.9853 28.7106C76.9717 27.7091 75.5918 27.159 74.1619 27.1863ZM80.5432 32.5237C80.5362 29.5828 82.9323 27.1932 85.895 27.1863C87.3249 27.159 88.7048 27.7091 89.7184 28.7106C90.7321 29.7121 91.2928 31.0792 91.272 32.4988C91.279 35.4397 88.8829 37.8293 85.9202 37.8362C82.9575 37.8431 80.5501 35.4646 80.5432 32.5237ZM82.739 33.8973C83.3141 35.0922 84.5665 35.8167 85.8972 35.7243C86.7325 35.7051 87.5245 35.3517 88.0936 34.7445C88.6626 34.1373 88.9604 33.3276 88.9195 32.4993C88.9162 31.1751 88.0978 29.9875 86.8558 29.5044C85.6137 29.0213 84.2004 29.341 83.2918 30.3106C82.3832 31.2801 82.164 32.7025 82.739 33.8973ZM71.0021 33.8973C71.5771 35.0922 72.8295 35.8167 74.1603 35.7243C74.9955 35.7051 75.7876 35.3517 76.3566 34.7445C76.9257 34.1373 77.2235 33.3276 77.1825 32.4993C77.1793 31.1751 76.3609 29.9875 75.1188 29.5044C73.8768 29.0213 72.4634 29.341 71.5548 30.3106C70.6462 31.2801 70.4271 32.7025 71.0021 33.8973ZM112.682 27.1863C114.77 27.2626 116.593 28.6103 117.266 30.5738L117.53 31.1238L110.365 34.0613C110.811 35.0789 111.842 35.7195 112.959 35.6738C114.036 35.6841 115.037 35.1276 115.591 34.2113L117.417 35.4613C116.116 37.4172 113.674 38.2897 111.416 37.6052C109.158 36.9206 107.623 34.8423 107.645 32.4988C107.558 31.1194 108.05 29.7658 109.004 28.7594C109.958 27.753 111.29 27.1836 112.682 27.1863ZM109.961 32.3495C109.91 31.5652 110.178 30.7932 110.707 30.2077C111.235 29.6221 111.978 29.2723 112.769 29.237C113.599 29.1868 114.378 29.635 114.746 30.3745L109.961 32.3495ZM106.498 37.4995H104.143V21.8745H106.498V37.4995ZM100.29 28.3733H100.202C99.4898 27.5685 98.4597 27.112 97.3809 27.1233C94.5226 27.2608 92.2763 29.6014 92.2763 32.442C92.2763 35.2827 94.5226 37.6232 97.3809 37.7608C98.4618 37.7823 99.4961 37.324 100.202 36.5108H100.29V37.2733C100.29 39.3108 99.1942 40.3983 97.4313 40.3983C96.2268 40.372 95.1575 39.6265 94.7239 38.5108L92.6839 39.3483C93.456 41.2732 95.3442 42.5261 97.4313 42.4983C100.189 42.4983 102.468 40.8858 102.468 36.9608V27.4983H100.29V28.3733ZM94.5367 32.5056C94.5367 34.2088 95.871 35.6183 97.5835 35.7243C98.4019 35.6931 99.1717 35.3307 99.7141 34.7215C100.256 34.1124 100.524 33.3094 100.455 32.4993C100.517 31.6921 100.246 30.8945 99.7051 30.2889C99.1638 29.6833 98.3982 29.3217 97.5835 29.2868C95.871 29.3928 94.5367 30.8024 94.5367 32.5056ZM128.296 21.8737H122.654V37.4987H125.009V31.5737H128.296C130.125 31.7041 131.874 30.8093 132.829 29.2549C133.784 27.7004 133.784 25.7469 132.829 24.1924C131.874 22.638 130.125 21.7432 128.296 21.8737ZM125.01 29.3728H128.297L128.347 29.3978C129.31 29.3978 130.2 28.888 130.681 28.0603C131.162 27.2327 131.162 26.213 130.681 25.3853C130.2 24.5577 129.31 24.0478 128.347 24.0478H125.01V29.3728ZM142.829 27.1362C141.077 27.0289 139.428 27.9677 138.636 29.5237L140.714 30.3862C141.143 29.6186 141.986 29.173 142.867 29.2487C143.471 29.1786 144.078 29.3524 144.552 29.7308C145.025 30.1092 145.326 30.6606 145.386 31.2612V31.4112C144.628 31.016 143.786 30.8101 142.93 30.8112C140.689 30.8112 138.397 32.0612 138.397 34.3362C138.442 35.3131 138.884 36.2303 139.622 36.8782C140.36 37.526 141.331 37.8491 142.313 37.7737C143.516 37.8397 144.662 37.2568 145.31 36.2487H145.386V37.4987H147.652V31.4862C147.652 28.7487 145.562 27.1612 142.88 27.1612L142.829 27.1362ZM140.698 34.3734C140.698 35.3109 141.769 35.6984 142.537 35.6984L142.587 35.7234C144.011 35.6952 145.194 34.6273 145.358 33.2234C144.704 32.8614 143.965 32.6801 143.217 32.6984C142.033 32.6984 140.698 33.1234 140.698 34.3734ZM155.91 27.5003L153.215 34.2753H153.14L150.344 27.5003H147.825L152.019 36.9753L149.626 42.2378H152.082L158.529 27.5003H155.91ZM137.098 37.4995H134.756V21.8745H137.098V37.4995Z" fill="white"/>
<path d="M12.5246 9.42588C12.1097 9.9129 11.8979 10.539 11.9328 11.1759V38.8259C11.8899 39.4639 12.1026 40.0928 12.5246 40.5759L12.6128 40.6759L28.215 25.1884V24.8134L12.6128 9.33838L12.5246 9.42588Z" fill="white"/>
<path d="M34.8063 30.3519L29.6433 25.1894V24.8144L34.8063 19.6519L34.9196 19.7269L41.1026 23.2019C42.8655 24.1894 42.8655 25.8144 41.1026 26.8144L34.9448 30.2894L34.8063 30.3519Z" fill="white"/>
<path d="M34.2425 30.9884L28.9284 25.7134L13.238 41.2884C13.9722 41.9371 15.068 41.9739 15.8447 41.3759L34.2425 30.9884Z" fill="white"/>
<path d="M34.2425 19.0098L15.8447 8.63475C15.0727 8.02816 13.9733 8.05979 13.238 8.70975L28.9284 24.2848L34.2425 19.0098Z" fill="white"/>
<path fill-rule="evenodd" clip-rule="evenodd" d="M52.2 17.8385H53.1192V16.251H58.8488V17.826H59.7807V15.326H58.937V8.75098H53.9V12.501C54.0278 13.5349 53.6917 14.5723 52.9807 15.3385H52.2V17.8385ZM54.151 15.3631C54.6748 14.5023 54.9249 13.5047 54.8687 12.5006V9.67563H57.9287V15.3631H54.151Z" fill="white"/>
<path fill-rule="evenodd" clip-rule="evenodd" d="M64.5846 16.4123C65.6218 16.4123 66.6163 16.0026 67.3487 15.2736C68.0937 14.5428 68.4995 13.5379 68.4694 12.4986C68.4877 11.4615 68.0836 10.461 67.3487 9.72364C66.6163 8.99466 65.6218 8.58496 64.5846 8.58496C63.5475 8.58496 62.5529 8.99466 61.8206 9.72364C60.3238 11.2753 60.3238 13.7219 61.8206 15.2736C62.5529 16.0026 63.5475 16.4123 64.5846 16.4123ZM64.5758 15.4981C63.8026 15.5087 63.0595 15.201 62.5232 14.6481C61.4144 13.4261 61.4144 11.5701 62.5232 10.3481C63.0595 9.79516 63.8026 9.48744 64.5758 9.49809C65.3499 9.48286 66.0947 9.79131 66.6284 10.3481C67.755 11.5633 67.755 13.4329 66.6284 14.6481C66.0947 15.2049 65.3499 15.5133 64.5758 15.4981Z" fill="white"/>
<path d="M73.3549 16.4115C72.3253 16.4275 71.3338 16.0257 70.6097 15.299C69.1002 13.7331 69.1002 11.265 70.6097 9.69901C71.3459 8.95954 72.3583 8.55664 73.4052 8.58651C74.4735 8.55651 75.4959 9.01782 76.1756 9.83651L75.5082 10.4865C75.0062 9.84583 74.2221 9.48695 73.4052 9.52401C72.6218 9.50417 71.865 9.80737 71.3149 10.3615C70.1908 11.5873 70.1908 13.4607 71.3149 14.6865C71.865 15.2407 72.6218 15.5438 73.4052 15.524C74.2811 15.4993 75.1013 15.0922 75.6467 14.4115L76.3267 15.074C75.9818 15.4844 75.5524 15.8168 75.0675 16.049C74.5318 16.2974 73.9461 16.4214 73.3549 16.4115Z" fill="white"/>
<path d="M80.2814 16.251H79.3117V9.67598H77.1962V8.75098H82.3843V9.67598H80.2814V16.251Z" fill="white"/>
<path d="M89.0593 8.75098L86.2007 15.076C86.0604 15.5892 85.7001 16.0154 85.2152 16.2416C84.7304 16.4678 84.1699 16.4713 83.6822 16.251L83.9341 15.3635C84.0882 15.4494 84.2611 15.4966 84.4378 15.501C84.6241 15.5103 84.8088 15.4622 84.9667 15.3635C85.1196 15.2371 85.2368 15.0734 85.3067 14.8885L85.5837 14.2885L83.0652 8.75098H84.2111L86.0748 13.051L87.9133 8.75098H89.0593Z" fill="white"/>
<path d="M90.1548 16.251V8.75098H95.62V16.251H94.6503V9.67598H91.1244V16.251H90.1548Z" fill="white"/>
<path d="M97.342 16.251V8.75098H98.3117V11.9635H102.089V8.75098H103.072V16.251H102.089V12.8635H98.3117V16.251H97.342Z" fill="white"/>
<path fill-rule="evenodd" clip-rule="evenodd" d="M108.21 16.4134C109.249 16.4134 110.246 16.0034 110.98 15.2736H110.968C112.452 13.7169 112.452 11.2804 110.968 9.72364C110.235 8.99466 109.241 8.58496 108.204 8.58496C107.166 8.58496 106.172 8.99466 105.439 9.72364C103.943 11.2753 103.943 13.7219 105.439 15.2736C106.174 16.0034 107.171 16.4134 108.21 16.4134ZM108.212 15.4981C107.437 15.5133 106.693 15.2049 106.159 14.6481C105.032 13.4329 105.032 11.5633 106.159 10.3481C106.693 9.79131 107.437 9.48286 108.212 9.49809C108.985 9.48744 109.728 9.79516 110.264 10.3481C111.373 11.5701 111.373 13.4261 110.264 14.6481C109.728 15.201 108.985 15.5087 108.212 15.4981Z" fill="white"/>
<path fill-rule="evenodd" clip-rule="evenodd" d="M116.057 16.2511V8.75109H118.789C119.356 8.74545 119.904 8.95058 120.326 9.32609C120.752 9.69306 120.991 10.2288 120.98 10.7886C120.983 11.1253 120.887 11.4556 120.703 11.7386C120.517 12.007 120.26 12.219 119.96 12.3511C120.324 12.4745 120.643 12.7004 120.88 13.0011C121.111 13.3074 121.235 13.6807 121.232 14.0636C121.245 14.647 120.996 15.2059 120.552 15.5886C120.115 15.9923 119.537 16.2119 118.94 16.2011L116.057 16.2511ZM117.026 11.9605H118.789C119.123 11.9797 119.447 11.8462 119.67 11.598C119.884 11.3903 120.006 11.1072 120.01 10.8105C120.022 10.5128 119.918 10.222 119.72 9.99801C119.506 9.76196 119.196 9.63356 118.877 9.64801H117.063L117.026 11.9605ZM118.99 15.3258H117.026V12.8633H118.94C119.295 12.8541 119.639 12.9949 119.884 13.2508C120.103 13.4762 120.229 13.7751 120.237 14.0883C120.236 14.4041 120.114 14.7078 119.897 14.9383C119.668 15.1952 119.335 15.3373 118.99 15.3258Z" fill="white"/>
</svg>
