<svg width="85" height="22" viewBox="0 0 85 22" fill="none" xmlns="http://www.w3.org/2000/svg">
<path fill-rule="evenodd" clip-rule="evenodd" d="M75.2713 12.6049C75.3415 14.0602 75.6761 15.4481 75.809 15.9507C75.8204 15.9945 75.7557 16.0193 75.7287 15.9812C75.4974 15.6592 75.0214 14.8408 74.724 13.253C74.7128 13.1928 74.6349 13.166 74.5823 13.2046C73.4655 14.0257 72.226 14.2328 70.867 14.084C66.8403 13.6432 65.9836 9.8457 68.1789 6.50809C70.615 2.80425 75.4313 3.81982 76 5.62197C75.288 7.76298 74.9823 9.61564 75.2713 12.6049ZM4.04059 10.5155C3.98137 10.4944 3.96804 10.3872 4.13281 10.3932C4.72151 10.4144 6.57679 10.6485 7.75289 10.4269C8.43206 6.65774 11.3909 4.3604 13.0685 5.15773C14.9725 6.06248 14.3217 11.3036 7.66854 10.9862C5.73416 10.9515 4.36838 10.6318 4.04059 10.5155ZM78.9938 13.0108C81.7797 8.28225 82.508 3.31315 78.565 2.76553C77.9047 2.67392 77.3114 2.89693 76.7975 3.35873C76.3366 1.99223 75.2815 0.920543 73.3441 0.455184C70.886 -0.135131 64.4522 0.133901 61.2987 8.38341C60.8259 8.33783 60.297 8.18575 59.5699 7.70794C59.8131 3.51504 58.8595 5.20323e-05 56.5362 5.20323e-05C54.4949 5.20323e-05 53.4067 4.04532 55.5676 6.41681C55.2323 10.7711 52.997 15.0325 48.1536 15.2179C46.1093 15.296 44.2403 14.0893 43.2516 12.7146C45.3115 7.42223 44.8072 1.70696 41.5641 1.15222V1.10531C41.4765 1.10531 41.3909 1.11109 41.3061 1.11843C41.2174 1.11109 41.1275 1.10531 41.035 1.10531L41.0319 1.15645C38.2088 1.68717 37.1906 6.46617 38.125 11.3036C36.7084 13.3972 34.72 15.041 32.0401 15.041C29.1229 15.041 27.5937 13.1844 27.0851 10.8452C27.0851 10.8452 26.4983 8.40876 26.9733 6.26873C26.9733 6.26873 27.0636 6.18935 27.071 6.30564C27.1061 6.84326 27.1593 8.62309 27.5887 10.1014C27.5999 10.1399 27.6531 10.147 27.675 10.1134C30.5694 5.68531 30.5108 5.20323e-05 26.8117 5.20323e-05C21.9218 5.20323e-05 22.0884 9.39328 22.4373 12.0036L22.6164 12.7513C20.2889 14.5251 17.1055 15.8556 13.0816 15.8556C10.0488 15.8556 8.52475 14.4386 8.10114 12.5676C8.09488 12.5403 8.12573 12.5205 8.14898 12.5365C8.70201 12.9178 10.0497 12.9979 10.6551 12.9945C20.6966 12.9381 21.8628 2.16632 14.5958 0.328227C8.27662 -1.27018 1.62033 3.10037 0.167331 10.5857C-0.881509 15.9892 3.08808 21.8012 9.61114 21.9944C14.6758 22.1445 19.6449 19.2327 23.4135 15.7785C24.7903 19.2134 27.458 21.8933 31.591 21.8933C35.4085 21.8933 38.4033 20.0303 40.5421 17.4207C42.2788 20.0303 44.849 21.8933 48.2946 21.8933C53.7541 21.8933 58.1513 16.238 59.1646 10.9466C59.2766 10.3611 59.3664 9.77571 59.4364 9.19607C59.9128 9.40262 60.3889 9.5676 60.8528 9.69455C58.7826 16.6474 63.0635 21.1077 66.3525 21.5644C69.336 21.9787 72.937 20.3513 75.6157 17.4887C76.3766 19.5274 78.3871 21.9253 80.4175 21.9251C83.5846 21.9249 85 18.0712 85 18.0712C82.2058 18.3307 79.2274 15.6068 78.9938 13.0108Z" fill="#0BBDF3"/>
</svg>
