<svg width="112" height="285" viewBox="0 0 112 285" fill="none" xmlns="http://www.w3.org/2000/svg">
<path fill-rule="evenodd" clip-rule="evenodd" d="M34.3753 288.432C36.58 288.783 40.8684 289.944 45.2155 290.208C49.7227 290.481 54.2929 289.846 56.6692 289.581C57.0312 297.772 57.0759 310.121 55.9243 319.636C54.6747 330.015 53.1236 347.384 52.6143 355.754C52.1768 362.963 52.6789 369.333 53.0497 374.481C53.3802 379.05 53.1496 383.772 53.4777 387.002C53.7599 387.354 53.9177 387.677 53.9669 388.043C54.3984 391.261 54.9529 393.635 54.8527 396.121C54.7563 398.611 55.0958 401.294 52.9782 403.727C50.8571 406.158 47.6006 409.751 43.9705 409.706C40.1398 409.653 38.1825 407.294 36.7293 404.394C35.2805 401.497 35.0637 396.455 35.9449 392.317C36.0105 392.009 36.1109 391.677 36.5681 391.285C37.5573 386.798 39.1365 378.63 39.9848 375.687C40.9002 372.51 41.5901 364.83 40.9833 359.149C40.5109 354.711 36.6154 332.233 35.207 324.246C33.8203 316.381 33.9965 296.823 34.3753 288.432Z" fill="#F7C395"/>
<g filter="url(#filter1_i)">
<path fill-rule="evenodd" clip-rule="evenodd" d="M83.7395 284.792C81.8024 285.195 76.5775 286.808 71.4159 287.499C67.4313 288.033 63.4846 287.713 61.1172 287.758C60.4981 293.56 58.3355 309.313 59.4104 316.708C60.7915 326.204 61.2669 337.011 62.1726 342.839C63.082 348.678 62.4276 353.82 62.3027 355.916C62.1726 358.12 61.121 360.735 60.4846 361.862C60.2394 361.862 59.9927 361.936 59.8497 362.206C58.8846 363.969 57.4434 367.459 57.5464 371.812C57.6811 377.227 60.4545 381.848 60.9833 384.359C61.4076 386.386 61.6633 390.124 61.7446 391.426C61.7649 391.735 62.0372 391.758 62.2471 391.758C62.4562 391.758 65.0777 391.758 65.0777 391.758C65.0777 391.758 65.0987 382.375 65.1288 380.792C65.1514 379.433 66.3196 379.272 66.9981 380.3C67.5239 381.096 70.2266 388.322 71.4159 390.567C72.6074 392.812 74.8497 393.868 76.4347 393.868H95.1559C96.8236 393.868 97.402 393.74 97.9181 393.545C98.6943 393.216 99.0298 392.493 99.0788 391.584C99.0832 391.436 98.732 391.001 98.5206 390.927C98.3904 389.872 97.569 388.187 95.9826 387.531C94.3992 386.87 90.8314 385.151 88.8531 384.359C87.6834 383.892 86.4986 382.946 85.453 381.853C85.0619 381.438 84.9641 381.122 84.4488 381.099C84.1374 380.655 83.5657 379.954 83.2851 379.532C81.9025 377.46 79.2013 372.816 78.1452 369.646C77.0876 366.475 75.4703 358.85 75.4703 354.625C75.4703 346.594 77.6247 329.812 78.4183 321.885C79.1818 314.243 81.6664 294.919 83.7395 284.792Z" fill="#F7C395"/>
</g>
<path d="M40.7132 175.146C43.1737 179.606 65.4691 188.212 71.3135 188.366C76.5256 188.504 83.2027 185.218 84.5866 184.505L84.8445 184.37L84.9573 186.188C85.0228 187.291 85.1102 188.835 85.2006 190.648L85.2023 190.645L85.2442 191.507L85.2918 192.524C85.4264 195.465 87.0597 198.878 87.1176 202.196C88.9725 210.998 90.6889 220.485 90.6889 220.485L90.6778 220.48L90.6798 220.484L90.6889 220.489L91.0758 221.857C92.8899 228.299 89.9903 272.551 85.6778 289.1C85.6778 289.1 84.742 292.485 61.2408 292.801C37.7396 293.118 32.6666 291.109 32.6666 291.109C32.6666 277.193 25.5843 258.13 25.5 255.5L23.6931 230.969C23.6388 228.556 23.4015 212.989 25.9497 200.968C28.7195 187.903 40.7132 175.146 40.7132 175.146Z" fill="#1B2334"/>
<path d="M33.7953 209.424C37.0246 192.976 45.0248 178.674 45.0248 178.674C42.8513 177.385 41.2698 176.162 40.7132 175.151C40.7132 175.151 28.7196 187.907 25.9498 200.973C23.18 214.038 20.5 238 27.677 263.068L33.7953 291C33.7953 291 32.0769 253.694 31.5733 229.983C31.6396 225.135 32.1078 218.017 33.7953 209.424Z" fill="#090A12"/>
<path d="M43.2115 95.1939C39.8312 91.8457 35.2521 90.9671 31.0606 89.3653C26.8691 87.7636 22.4658 84.6939 21.5283 79.5832C24.7057 86.4457 24.5615 95.3171 21.1633 102.03C20.699 97.4118 18.8692 93.0029 16.0749 89.7457C19.2117 78.5921 16.823 65.5046 10.0806 56.8956C14.4839 68.5796 15.2321 83.4671 7.24566 93.8975C10.2518 85.2564 5.61864 72.8278 4.00063 63.6778C1.80572 51.2814 3.34261 44.7081 8.29129 35.0438C12.3836 27.0563 16.8861 19.0259 24.6426 17.4563C26.0533 22.9581 29.9158 26.9974 33.598 30.7313C40.9309 38.1563 48.2638 45.5867 55.5967 53.0117C59.5854 57.051 63.9076 61.8885 63.9797 68.1189C64.0112 70.6742 63.2991 73.3153 63.9977 75.7314C65.0388 79.3368 68.5768 80.735 71.3261 82.7064C75.6933 85.8403 81.1423 87.7582 82.3006 100.631C79.4387 95.3654 63.84 106.69 43.2115 95.1939Z" fill="#8D6AFF"/>
<path d="M88.7981 59.4551C86.5805 63.0891 86.7616 67.7563 88.0427 71.8186C89.3238 75.8808 91.59 79.5457 93.4366 83.3828C95.2831 87.2199 95.5614 90.6817 93.6442 94.6115C93.7988 90.6155 91.7137 88.3989 89.5933 87.3082C91.2057 91.0217 91.3382 94.3951 90.4061 98.2102C86.6159 93.2824 81.2176 82.8176 75.0331 82.1553C79.6229 74.5871 84.2083 67.0189 88.7981 59.4551Z" fill="#8D6AFF"/>
<path d="M9.07907 96.0817C19.0009 96.1391 23.7365 88.2794 22.9723 83.1133C23.9397 86.8488 26.5284 85.6169 30.1419 86.9724C33.7555 88.328 37.6518 88.8755 41.1637 90.4739C44.6757 92.0768 47.9181 95.1544 48.0949 99.0092C49.4157 91.3835 49.4245 83.5327 48.1302 75.9027C46.5222 81.2322 50.5466 87.52 56.0641 88.2927C61.5816 89.0654 67.1787 84.12 67.0903 78.552C67.0638 82.1463 69.5244 85.3475 72.4797 87.3919C75.4351 89.4319 78.8984 90.5843 82.163 92.0944C85.4231 93.6046 88.6479 95.6313 90.3885 98.7751C90.733 92.3064 86.3022 86.7031 82.4899 81.4619C72.7889 68.1137 65.7253 52.8581 61.8334 36.8253C60.9013 32.9794 60.0222 28.8553 57.2082 26.0735C53.5108 22.413 47.6619 22.2231 42.4846 22.7574C36.9494 23.3314 31.4142 24.4883 26.4047 26.9124C21.3996 29.3366 16.9291 33.1118 14.3492 38.0396C10.581 45.2236 11.0051 53.8869 12.4143 61.879C16.823 86.84 13.5496 90.209 9.07907 96.0817Z" fill="#6916CD"/>
<path d="M89.0367 31.4516C92.0627 32.7586 93.6884 36.0393 94.6911 39.1788C97.1429 46.8485 97.3019 55.2292 95.155 62.9873C93.0036 70.7454 88.5507 77.8499 82.5031 83.1662C85.4717 77.6512 86.0372 71.0942 85.2332 64.8815C84.4292 58.6689 82.3397 52.7079 80.2325 46.8088C79.19 43.8945 78.1253 40.8213 78.6334 37.7702C79.0177 35.4653 80.3562 33.3105 82.3264 32.0565C84.3011 30.8069 86.8898 30.5243 89.0367 31.4516Z" fill="#6916CD"/>
<path d="M84.8311 23.9497C83.656 24.0247 82.1938 24.5634 82.5031 25.9941C82.587 26.3782 82.8079 26.7182 83.0862 26.992C89.6727 33.4431 93.8297 42.3094 94.5939 51.4982C95.336 60.4705 92.8357 69.6769 87.6539 77.0376C91.8683 76.8742 92.6634 74.4324 95.473 68.9262C93.1228 75.5628 93.971 80.336 97.5492 84.2658C97.7701 84.5086 98.1633 84.2614 98.0484 83.9523C95.7115 77.7705 100.187 72.3836 102.051 66.4712C105.678 54.9732 104.361 47.5242 101.309 38.5916C100.032 34.8516 98.2295 31.2044 95.4465 28.4005C92.659 25.5878 88.776 23.698 84.8311 23.9497Z" fill="#6916CD"/>
<path d="M92.9506 171.375C92.9506 171.375 86.8411 177.972 86.8411 179.266C86.8411 180.56 88.67 187.028 87.2166 192.782C85.7677 198.535 79.1413 175.672 79.9365 175.672C80.7317 175.672 86.8014 170.271 88.7848 168.284C90.7727 166.297 92.9506 171.375 92.9506 171.375Z" fill="#F7C395"/>
<path d="M71.6624 104.732C82.4589 106.94 108.063 139.862 111.23 147.271C114.393 154.68 92.2084 174.126 92.2084 174.126L86.713 168.285C86.713 168.285 98.8436 150.503 96.5111 148.172C94.1786 145.84 62.898 119.021 62.898 119.021L71.6624 104.732Z" fill="#090A12"/>
<path d="M51.2534 99.9144C54.9288 101.53 60.6628 100.537 60.6628 100.537C62.6845 101.377 65.1007 101.45 66.8692 101.813L66.8517 101.795L70.9866 102.55C70.9866 102.55 71.9168 108.371 74.5007 111.282C76.7776 113.847 85.5689 118.976 85.5689 118.976C90.3354 122.35 95.9678 127.414 96.2682 132.099C97.1075 145.24 84.0979 148.671 84.0979 148.671C84.0979 148.671 80.2126 158.673 80.4606 167.178C80.7129 175.834 84.8444 184.37 84.8444 184.37L84.8171 184.416L84.7759 184.48C84.2271 185.317 80.2371 190.645 67.6381 190.649C42.2651 190.649 40.7942 176.366 40.7171 175.223L40.7131 175.151L44.6092 170.555C43.9504 170.065 43.6468 169.567 43.7789 169.092C47.9446 154.141 40.8942 140.639 40.8942 140.639L40.9171 140.662L40.9498 140.694C41.3772 141.094 44.1771 143.277 46.1555 134.024C46.9816 130.165 47.9579 122.12 44.6094 115.859C39.3075 105.949 33.638 102.722 33.638 102.722L40.75 101.634L43.2841 101.266C45.1086 101.001 46.668 99.7775 47.2953 98.0466C47.5647 97.3092 47.7679 96.4879 47.8342 95.6181L47.8657 95.2287C47.9792 93.9526 47.8435 98.4114 51.2534 99.9144Z" fill="#EEF9FB"/>
<path d="M60.9632 87.4362C60.9632 87.4362 62.4872 96.6293 63.9097 104.003C59.3287 104.524 53.4047 104.648 53.4047 104.648C53.4047 104.648 49.186 104.224 48.9298 103.217C48.0816 99.8836 47.5692 92.1608 46.6945 84.4027C45.6078 74.7857 60.9632 87.4362 60.9632 87.4362Z" fill="white"/>
<path d="M61.472 89.9082C61.472 89.9082 62.3204 95.2598 63.419 100.996C58.6765 100.801 52.2683 99.6047 48.2045 98.0857C48.008 94.6681 46.847 90.6191 47.0479 86.8703C47.5704 77.2091 61.472 89.9082 61.472 89.9082Z" fill="#DF9075"/>
<path d="M38.5176 135.133L38.8401 130.841C38.8401 130.841 45.8949 138.961 41.5701 142.184" fill="#DF9075"/>
<path d="M74.9711 144.361C74.7988 143.752 68.1107 148.274 61.6434 147.554C55.1717 146.834 49.3317 140.904 49.3317 140.904C49.3317 140.904 53.9568 151.086 61.6875 150.565C67.9649 150.146 75.0771 144.746 74.9711 144.361Z" fill="#EEEEEE"/>
<path d="M94.382 140.855C93.6884 141.31 92.0716 143.942 87.3492 145.743C84.2658 146.922 81.2309 145.567 80.5197 145.2C80.2591 145.068 82.6092 149.064 84.3806 148.587C87.6982 147.704 92.3808 144.573 94.382 140.855Z" fill="#EEEEEE"/>
<path d="M40.8942 140.643C41.2167 140.334 48.1788 150.353 48.2583 158.588C48.3378 166.744 46.8491 171.711 46.8491 171.711C46.8491 171.711 43.5492 170.488 43.7391 169.296C44.2118 166.337 45.2853 162.801 45.0997 159.074C44.9716 156.531 44.5343 152.698 43.6464 149.249C42.4669 144.692 40.797 140.741 40.8942 140.643Z" fill="#BEDCE8"/>
<path d="M96.8822 134.589C96.3035 123.979 87.336 121.445 81.3634 114.398C75.3909 107.35 75.8062 106.401 75.8062 106.401L67.9247 103.792C70.1644 109.779 82.0497 118.8 84.1684 130.629C86.2872 142.459 80.7689 148.899 81.6965 148.639C81.4183 149.164 83.4386 150.595 86.8168 148.639C91.1304 146.141 97.229 140.906 96.8822 134.589Z" fill="#1B2334"/>
<path d="M11.3541 157.621C12.1006 157.489 18.0069 150.614 18.5326 150.066C19.4603 149.104 20.3879 148.137 21.3156 147.174C26.5239 141.756 33.3655 132.919 38.5738 127.501L21.8811 109.492C17.7374 118.129 13.5893 126.765 9.44568 135.402C7.70075 139.036 3.83098 144.026 2.94305 151.227C3.83098 156.72 9.07903 158.023 11.3541 157.621Z" fill="#1B2334"/>
<path d="M36.6489 131.199C38.2657 130.859 39.9355 130.854 41.2608 131.848C41.6805 132.161 42.6833 133.133 42.7407 133.274C43.4563 134.157 48.457 141.778 51.377 143.478C55.4323 145.845 60.3358 146.719 64.9609 145.907C63.6445 148.026 60.9852 148.839 58.5246 149.254C56.064 149.669 53.4356 149.912 51.4388 151.409C48.9738 153.259 48.1345 156.517 47.4498 159.524C46.3498 164.364 45.2499 169.208 44.1499 174.047C43.3768 173.548 43.2973 173.296 43.2973 173.296C43.2973 173.296 43.8053 167.477 44.9539 161.608C45.992 156.31 43.3636 147.421 42.4668 145.527C39.295 138.838 33.7333 133.879 33.7333 133.879C33.7333 133.879 35.5931 131.419 36.6489 131.199Z" fill="#090A12"/>
<path d="M24.3196 110.048C24.0015 108.172 26.1926 106.467 30.8222 106.114C35.4562 105.765 36.6048 106.918 36.5385 107.801C36.4722 108.684 24.8055 112.927 24.3196 110.048Z" fill="#2B3A4F"/>
<g filter="url(#filter2_d)">
<path d="M40.181 141.041C40.1959 141.037 39.7125 140.164 39.7326 140.159C39.7542 140.154 39.7782 140.149 39.8033 140.142C40.7708 142.455 41.778 144.796 42.4892 146.275C43.3948 148.165 45.3076 156.969 44.9763 162.356C44.8517 164.382 44.5867 166.536 44.3044 168.436C44.1068 168.883 43.9383 169.352 43.801 169.845C43.6689 170.319 40.7353 175.903 40.7353 175.903L40.7393 175.976C40.8163 177.118 42.2872 191.402 67.6602 191.402C80.2592 191.398 84.2492 186.069 84.798 185.233L84.8392 185.168L84.8666 185.123C84.8666 185.123 83.2882 172.741 83.1311 171.991C83.1115 171.898 83.0896 171.805 83.0653 171.712C83.037 171.546 83.0075 171.375 82.9772 171.201C82.5423 168.69 81.9608 165.333 82.7679 160.566C84.2195 151.989 87.4335 148.06 87.4681 148.019C85.6623 148.283 83.8739 148.569 82.1632 148.947C81.0832 150.002 80.0205 151.061 79.0182 152.135C76.7945 154.526 75.2494 157.284 74.1086 160.199C74.1061 154.158 73.4612 139.741 67.9345 131.021C61.8459 121.414 49.4117 110.121 49.4117 110.121L44.8882 102.327L38.2042 102.451C38.1892 102.437 38.1736 102.423 38.1579 102.408C38.1275 102.38 38.0964 102.35 38.0672 102.327C36.9408 102.451 35.9159 102.583 34.9396 102.742L34.8954 102.747V102.751C32.8369 103.091 30.9992 103.572 28.9848 104.455C25.9985 105.767 21.5589 110.28 21.5589 110.28C24.4589 113.186 25.0339 112.457 28.9848 117.722C32.9356 122.988 40.181 141.041 40.181 141.041Z" fill="#1B2334"/>
</g>
<path d="M40.4745 131.384C40.3022 131.212 34.3562 129.035 29.7531 132.484C25.15 135.937 15.8732 149.064 15.0339 150.168C10.4529 156.168 14.5037 155.714 14.5037 154.38C14.5037 153.051 30.239 138.723 31.0872 137.367C31.9354 136.012 37.5236 131.044 37.5236 131.044" fill="#090A12"/>
<path d="M39.5822 190.45C39.5866 190.45 39.5292 190.715 39.5822 190.45V190.45Z" fill="#F7C395"/>
<path d="M36.9714 194.208C34.8599 194.698 32.7085 195.016 30.5483 195.179C29.9829 192.247 30.3407 183.968 30.2303 182.878C30.1022 181.632 34.0735 178.568 34.0735 178.568C34.0735 178.568 37.5678 178.815 40.8235 179.937C44.1897 181.094 46.8137 184.56 49.61 186.044C52.4019 187.527 51.8895 190.6 42.8468 186.759C39.8959 185.505 40.13 187.876 39.7633 189.603C39.6661 190.071 39.6131 190.322 39.5866 190.45C39.5822 190.455 39.5115 190.517 39.3834 190.627C39.5071 191.448 39.6308 192.269 39.7589 193.091C39.7545 193.095 39.7457 193.1 39.7412 193.108C38.9417 193.713 37.9477 193.983 36.9714 194.208Z" fill="#F7C395"/>
<path d="M40.8412 205.212C40.6071 206.329 39.3392 206.135 39.2465 204.987C38.9505 201.41 38.8842 200.717 37.9875 197.674C37.9433 197.524 37.7224 197.551 37.718 197.705C37.5148 201.454 37.5413 204.139 36.5429 208.846C36.3927 209.561 35.3767 209.561 35.2221 208.846C34.8378 207.062 34.5153 205.256 34.2237 203.446C34.1575 205.234 33.8836 207.009 33.3976 208.691C33.1414 209.574 32.1033 209.468 31.9487 208.55C31.2419 204.315 30.6985 200.386 30.7383 195.882L30.7515 195.873C30.6764 195.701 30.6146 195.462 30.5572 195.175C32.7173 195.012 34.8687 194.694 36.9803 194.204C37.9566 193.979 38.9505 193.705 39.7457 193.1C39.7501 193.096 39.7589 193.091 39.7633 193.082C40.2404 196.222 40.7175 199.366 41.1946 202.505C41.1239 203.49 41.0135 204.404 40.8412 205.212Z" fill="#F7C395"/>
<path d="M18.6518 171.76C21.3686 174.859 24.6774 178.334 28.7327 182.22C45.4001 198.195 35.5445 180.405 25.5962 164.88" fill="#F7C395"/>
<path d="M31.9001 179.107C32.1254 179.425 32.3551 179.743 32.5804 180.061L34.8422 179.986C28.9448 168.898 19.2571 155.215 17.2118 152.976L31.9001 179.107Z" fill="#DF9075"/>
<path d="M49.61 186.044C46.8181 184.56 44.1941 181.099 40.8235 179.937C37.5678 178.816 34.0735 178.568 34.0735 178.568C34.0735 178.568 31.5732 178.493 32.5804 180.061C33.1635 180.97 40.3553 180.555 38.9063 187.196C38.5617 188.764 40.1432 190.883 40.1432 190.883C40.1432 190.883 39.8958 185.51 42.8468 186.764C51.8895 190.601 52.4019 187.528 49.61 186.044Z" fill="#DF9075"/>
<path d="M39.2685 188.931L39.9134 189.077C40.7925 192.632 41.464 198.195 41.1813 202.514C40.5761 198.531 39.9709 194.548 39.3701 190.561C39.3215 190.212 39.1978 189.276 39.2685 188.931Z" fill="#DF9075"/>
<path d="M18.1748 152.102C17.8037 151.439 3.61454 149.519 2.94308 151.227C1.20698 153.197 15.2106 168.92 19.7518 173.46C23.3256 177.032 29.3556 168.285 27.8315 166.757C24.9513 163.873 20.1141 155.537 18.1748 152.102Z" fill="#1B2334"/>
<path d="M14.2786 151.21C14.2786 152.601 21.4306 162.178 22.8928 163.64C24.355 165.101 27.2794 169.843 27.2794 169.843C27.2794 169.843 28.6135 167.614 27.8316 166.757C27.0497 165.9 17.9937 152.256 17.9937 150.927" fill="#090A12"/>
<path d="M57.946 23.5171C89.9555 23.1551 90.1322 46.3587 90.1322 46.3587L90.3266 63.4335C90.3796 68.2906 88.1311 77.0289 86.5054 78.7642C83.6517 81.8021 67.6999 94.6027 62.6242 95.2783C56.687 96.0642 37.1658 87.1758 32.8366 82.8574C28.7504 78.7819 26.5328 69.0191 26.4754 64.1621L26.281 47.0872C26.2854 47.0784 25.9364 23.8792 57.946 23.5171Z" fill="#F7C395"/>
<path d="M72.0555 62.9919C72.0555 62.9919 68.9412 52.5492 78.4831 49.71C86.5804 47.3035 90.7683 56.3995 90.7683 56.3995C90.7683 56.3995 86.2182 59.0223 81.2308 58.3821C76.5438 57.7816 72.0555 62.9919 72.0555 62.9919Z" fill="url(#paint0_linear)"/>
<path d="M55.3926 63.1817C55.3926 63.1817 58.5158 52.6684 48.1346 50.0544C39.326 47.8378 35.0144 57.0309 35.0144 57.0309C35.0144 57.0309 39.993 59.5477 45.3692 58.7883C50.4184 58.0774 55.3926 63.1817 55.3926 63.1817Z" fill="url(#paint1_linear)"/>
<path d="M64.3247 69.5845C66.1757 69.7302 68.358 70.6839 68.358 70.6839L67.1475 72.2073L64.9609 72.5605L63.7549 72.5738L61.5593 72.2691L60.3136 70.7722C60.3136 70.7767 62.4782 69.7699 64.3247 69.5845Z" fill="#DF9075"/>
<path d="M61.8731 67.3058C62.7433 66.564 62.7831 63.6983 62.7478 62.2014C62.7345 61.6539 63.1542 61.1858 63.7019 61.1461C63.8875 61.1329 64.0642 61.1284 64.2232 61.124C64.3867 61.124 64.5589 61.124 64.7489 61.1329C65.2967 61.1593 65.7252 61.6186 65.7252 62.1661C65.7252 63.6585 65.8268 66.5286 66.7147 67.2484C68.5436 68.732 68.3536 70.6792 68.3536 70.6792C68.3536 70.6792 66.5866 69.7608 64.3204 69.6813C62.0542 69.8138 60.3093 70.7675 60.3093 70.7675C60.3093 70.7675 60.0796 68.8291 61.8731 67.3058Z" fill="#F6D3CC"/>
<ellipse opacity="0.5" cx="85.6928" cy="67.2123" rx="4.09037" ry="2.83483" transform="rotate(-18.3552 85.6928 67.2123)" fill="#EF84BC"/>
<ellipse opacity="0.5" cx="38.105" cy="68.2691" rx="2.83482" ry="4.09041" transform="rotate(-72.944 38.105 68.2691)" fill="#EF84BC"/>
<mask id="mask0" mask-type="alpha" maskUnits="userSpaceOnUse" x="26" y="23" width="65" height="73">
<path fill-rule="evenodd" clip-rule="evenodd" d="M57.946 23.5171C89.9555 23.1551 90.1322 46.3587 90.1322 46.3587L90.3266 63.4335C90.3796 68.2906 88.1311 77.0289 86.5054 78.7642C83.6517 81.8021 67.6999 94.6027 62.6242 95.2783C56.687 96.0642 37.1658 87.1758 32.8366 82.8574C28.7504 78.7819 26.5328 69.0191 26.4754 64.1621L26.281 47.0872C26.2854 47.0784 25.9364 23.8792 57.946 23.5171Z" fill="white"/>
</mask>
<g mask="url(#mask0)">
<path d="M47.9226 38.9184C47.9226 38.9184 59.7484 45.7094 71.9275 46.0406C98.0353 46.7515 96.3919 66.586 96.3919 66.586L99.9878 51.1935C99.9878 51.1935 95.4245 38.5121 91.0953 34.8737C71.4195 18.3464 47.7547 30.679 47.7547 30.679C47.7547 30.679 23.4582 44.8661 21.5322 53.2688C19.6061 61.6716 28.883 60.316 28.883 60.316C28.883 60.316 36.3221 38.128 47.9226 38.9184Z" fill="#DF9075"/>
</g>
<mask id="mask1" mask-type="alpha" maskUnits="userSpaceOnUse" x="26" y="23" width="65" height="73">
<path fill-rule="evenodd" clip-rule="evenodd" d="M57.946 23.5171C89.9555 23.1551 90.1322 46.3587 90.1322 46.3587L90.3266 63.4335C90.3796 68.2906 88.1311 77.0289 86.5054 78.7642C83.6517 81.8021 67.6999 94.6027 62.6242 95.2783C56.687 96.0642 37.1658 87.1758 32.8366 82.8574C28.7504 78.7819 26.5328 69.0191 26.4754 64.1621L26.281 47.0872C26.2854 47.0784 25.9364 23.8792 57.946 23.5171Z" fill="white"/>
</mask>
<g mask="url(#mask1)">
<path d="M27.7343 58.9692C27.7343 58.9692 30.4644 76.9404 35.5887 81.4531C43.9202 88.7917 60.4021 96.4659 60.4021 96.4659L41.2653 94.5451C41.2653 94.5451 28.2998 84.2305 26.6211 76.936C24.9424 69.6416 27.7343 58.9692 27.7343 58.9692Z" fill="#DF9075"/>
</g>
<mask id="mask2" mask-type="alpha" maskUnits="userSpaceOnUse" x="26" y="23" width="65" height="73">
<path fill-rule="evenodd" clip-rule="evenodd" d="M57.946 23.5171C89.9555 23.1551 90.1322 46.3587 90.1322 46.3587L90.3266 63.4335C90.3796 68.2906 88.1311 77.0289 86.5054 78.7642C83.6517 81.8021 67.6999 94.6027 62.6242 95.2783C56.687 96.0642 37.1658 87.1758 32.8366 82.8574C28.7504 78.7819 26.5328 69.0191 26.4754 64.1621L26.281 47.0872C26.2854 47.0784 25.9364 23.8792 57.946 23.5171Z" fill="white"/>
</mask>
<g mask="url(#mask2)">
<path d="M28.9756 47.9219L28.8873 79.9389C28.8873 79.9389 22.124 74.2737 22.8882 66.966C23.6525 59.6583 24.8275 49.3525 28.9756 47.9219Z" fill="#DF9075"/>
</g>
<path d="M27.4118 56.002C27.4118 56.002 25.1059 53.8251 21.9606 54.6243C18.8197 55.4235 19.5972 64.5813 23.573 67.9415C27.5488 71.3018 27.752 69.955 27.752 69.955L27.4118 56.002Z" fill="#DF9075"/>
<path d="M22.7026 57.2517C23.7981 57.2782 24.876 57.7418 25.6535 58.5145C26.431 59.2873 26.8992 60.3647 26.9346 61.4597C26.939 61.3935 26.9434 61.3228 26.9478 61.2566" stroke="#B97F75" stroke-width="6.62109" stroke-linecap="round" stroke-linejoin="round"/>
<path d="M26.0644 59.1768C24.5227 59.1371 23.0207 60.2498 22.6055 61.7378" stroke="#B97F75" stroke-width="6.62109" stroke-linecap="round" stroke-linejoin="round"/>
<path d="M73.8447 48.2439C75.413 46.7824 78.386 44.6364 82.2425 44.7998C88.0604 45.0471 89.9025 48.0099 89.9025 48.0099C89.9025 48.0099 87.062 46.045 82.6798 46.7073C79.2518 47.2239 76.2125 49.4405 75.0551 50.381C74.7371 50.6371 74.3351 50.6636 73.9993 50.4473C73.3102 50.0013 73.2263 48.8224 73.8447 48.2439Z" fill="#471E6D"/>
<path d="M55.9095 48.1071C53.7139 46.6853 49.5615 44.6233 44.256 44.8926C36.2558 45.2988 33.7952 48.3058 33.7952 48.3058C33.7952 48.3058 37.6517 46.2614 43.7038 46.8089C48.4394 47.2328 52.6802 49.3699 54.3015 50.2795C54.7432 50.5268 55.2998 50.5445 55.7549 50.3193C56.6914 49.8512 56.7753 48.6679 55.9095 48.1071Z" fill="#471E6D"/>
<path d="M72.0558 62.9923C72.0558 62.9923 71.8393 57.071 76.4115 53.9934C80.723 51.0924 87.3361 55.1106 87.6099 57.3934C87.6099 57.3934 87.4509 62.4668 81.7214 63.138C77.3171 63.659 74.9448 62.1666 72.0558 62.9923Z" fill="#E7FFFF"/>
<mask id="mask3" mask-type="alpha" maskUnits="userSpaceOnUse" x="72" y="52" width="16" height="12">
<path fill-rule="evenodd" clip-rule="evenodd" d="M72.0558 62.9923C72.0558 62.9923 71.8393 57.071 76.4115 53.9934C80.723 51.0924 87.3361 55.1106 87.6099 57.3934C87.6099 57.3934 87.4509 62.4668 81.7214 63.138C77.3171 63.659 74.9448 62.1666 72.0558 62.9923Z" fill="white"/>
</mask>
<g mask="url(#mask3)">
<path d="M82.8478 58.7669C82.1454 60.979 79.7334 62.2242 77.454 61.5442C75.1745 60.8642 73.8979 58.5196 74.6003 56.303C75.3026 54.0908 77.7146 52.8456 79.9941 53.5256C82.2735 54.2056 83.5502 56.5503 82.8478 58.7669Z" fill="url(#paint2_radial)"/>
<ellipse cx="78.7423" cy="57.4035" rx="2.10709" ry="2.04873" transform="rotate(-0.647479 78.7423 57.4035)" fill="#471E6D"/>
<ellipse opacity="0.95" cx="80.8802" cy="57.125" rx="0.856973" ry="0.830089" transform="rotate(-0.647479 80.8802 57.125)" fill="white"/>
</g>
<path d="M72.0115 62.9968C71.8658 61.0893 72.2589 59.142 73.1689 57.4376C73.6239 56.5854 74.2247 55.8127 74.9315 55.146C75.6251 54.4616 76.5218 53.9626 77.4672 53.6933C79.3712 53.1546 81.3856 53.3577 83.2409 53.892C84.173 54.1701 85.0786 54.541 85.9312 55.0444C86.3553 55.2961 86.7661 55.5831 87.1416 55.9319C87.5039 56.2896 87.8882 56.6958 87.9986 57.3449L88.0031 57.367V57.3891C87.9235 59.1023 87.04 60.6389 85.7501 61.6721C85.1096 62.1932 84.3762 62.5729 83.6208 62.8555C82.8654 63.1381 82.0791 63.3191 81.2928 63.4207C79.7157 63.6414 78.1166 63.5311 76.5925 63.2705C75.8283 63.1469 75.0729 63.01 74.3219 62.9217C73.5709 62.829 72.8111 62.8246 72.069 63.0277L72.038 62.9438C72.7537 62.6215 73.5621 62.5464 74.3396 62.5464C75.1215 62.5508 75.8946 62.6435 76.6544 62.6965C77.4186 62.7539 78.174 62.7937 78.925 62.7848C79.676 62.7716 80.4225 62.7098 81.1559 62.5817C81.8892 62.4448 82.6092 62.2726 83.2939 62.0077C83.9743 61.7428 84.6148 61.3939 85.1802 60.9612C85.7457 60.5241 86.2228 59.9854 86.5806 59.3672C86.934 58.7623 87.1726 58.0337 87.2211 57.3802L87.2256 57.4288C87.1991 57.1197 86.934 56.7488 86.6336 56.4486C86.3244 56.1395 85.9577 55.8657 85.5734 55.6229C84.8003 55.1371 83.9433 54.7618 83.0598 54.4748C81.3016 53.9185 79.38 53.6844 77.5953 54.1437C76.7074 54.3777 75.8769 54.7971 75.1922 55.4242C74.4942 56.0379 73.889 56.7621 73.4207 57.5701C72.4798 59.1862 72.0204 61.0937 72.0999 62.9791L72.0115 62.9968Z" fill="#471E6D"/>
<path d="M72.6079 59.1904L72.9834 57.1372C72.9834 57.1372 74.7505 51.3043 82.2912 52.1829C87.1373 52.7481 89.8673 56.2673 89.8673 56.2673L87.6674 58.2499C87.6674 58.2499 87.3228 56.3644 85.4542 55.1237C83.5855 53.8829 78.9118 52.938 76.0978 54.5452C73.1425 56.2452 72.6079 59.1904 72.6079 59.1904Z" fill="#471E6D"/>
<path d="M87.4376 58.6518C87.4376 58.6518 89.1163 58.6033 89.9114 59.9721C89.9114 59.9721 88.6568 59.2126 87.1902 59.3274L87.4376 58.6518Z" fill="#471E6D"/>
<path d="M87.2079 59.5349C87.2079 59.5349 88.8689 59.8087 89.4255 61.31C89.4255 61.31 88.3167 60.3209 86.8545 60.1531L87.2079 59.5349Z" fill="#471E6D"/>
<path d="M55.3927 63.1816C55.3927 63.1816 55.3441 56.8011 50.4715 54.2887C44.3223 51.1183 38.6899 55.6619 38.447 57.9492C38.447 57.9492 38.7385 63.0182 44.9452 63.5569C49.725 63.9719 52.2518 62.4221 55.3927 63.1816Z" fill="#E7FFFF"/>
<mask id="mask4" mask-type="alpha" maskUnits="userSpaceOnUse" x="38" y="53" width="18" height="11">
<path fill-rule="evenodd" clip-rule="evenodd" d="M55.3927 63.1816C55.3927 63.1816 55.3441 56.8011 50.4715 54.2887C44.3223 51.1183 38.6899 55.6619 38.447 57.9492C38.447 57.9492 38.7385 63.0182 44.9452 63.5569C49.725 63.9719 52.2518 62.4221 55.3927 63.1816Z" fill="white"/>
</mask>
<g mask="url(#mask4)">
<ellipse cx="45.8287" cy="57.5611" rx="4.68702" ry="4.68487" fill="url(#paint3_radial)"/>
<ellipse cx="45.7712" cy="57.3888" rx="2.28829" ry="2.28724" fill="#471E6D"/>
<ellipse opacity="0.95" cx="43.4388" cy="57.1324" rx="0.932103" ry="0.931676" fill="white"/>
</g>
<path d="M55.3485 63.1771C55.3882 61.146 54.6682 59.1193 53.4357 57.5341C52.1988 55.9401 50.4538 54.7788 48.5896 54.0679C47.6487 53.7323 46.6592 53.5424 45.6696 53.5424C44.6801 53.5424 43.695 53.7367 42.7806 54.1032C41.8661 54.4653 41.018 55.004 40.2979 55.6663C39.9401 55.9975 39.6132 56.3684 39.3525 56.7658C39.0875 57.1588 38.8755 57.6003 38.8357 57.9977V57.9491C38.8622 58.2715 38.9682 58.6689 39.1007 59.0089C39.2377 59.3577 39.4188 59.6933 39.6309 60.0068C40.0638 60.625 40.6204 61.1592 41.2653 61.5699C41.9103 61.9805 42.6215 62.3073 43.3681 62.5369C44.1191 62.7621 44.8966 62.921 45.6829 63.0358C47.2644 63.261 48.8679 63.1595 50.4892 63.0093C51.302 62.9343 52.1148 62.8283 52.9498 62.8106C53.7758 62.793 54.6328 62.8504 55.4059 63.1551L55.3794 63.2389C54.5842 63.0579 53.7758 63.0756 52.9763 63.1815C52.1767 63.2831 51.3771 63.4376 50.5643 63.5789C48.9519 63.8792 47.2688 64.0161 45.5901 63.866C44.7552 63.7953 43.9203 63.6452 43.103 63.4023C42.2902 63.1595 41.4862 62.8195 40.7662 62.3293C39.3128 61.3668 38.204 59.8169 38.0626 57.9756V57.9491L38.067 57.9227C38.1598 57.2956 38.4425 56.8099 38.7562 56.3596C39.0742 55.9136 39.4409 55.5206 39.8385 55.1629C40.6381 54.4565 41.5657 53.9001 42.5597 53.5336C43.5536 53.1627 44.6183 52.9817 45.6785 53.0038C46.7387 53.0258 47.7812 53.2554 48.7575 53.6308C50.6968 54.4123 52.4373 55.684 53.6698 57.3663C54.8846 59.0486 55.5473 61.1283 55.4368 63.1948L55.3485 63.1771Z" fill="#471E6D"/>
<path d="M54.6947 59.2519L54.2485 57.3444C54.2485 57.3444 50.3522 51.3039 43.0368 52.2268C36.7418 53.0216 35.8362 57.8433 35.8362 57.8433C35.8362 57.8433 36.0791 58.6072 38.4028 58.8059C38.4028 58.8059 39.114 55.9844 41.1063 54.6951C43.0986 53.4101 47.631 52.7566 50.5245 54.8054C53.4843 56.9028 54.6947 59.2519 54.6947 59.2519Z" fill="#471E6D"/>
<path d="M38.6633 59.2034C38.6633 59.2034 36.8477 59.1945 36.0216 60.581C36.0216 60.581 37.3602 59.7906 38.9461 59.8745L38.6633 59.2034Z" fill="#471E6D"/>
<path d="M38.9328 60.082C38.9328 60.082 37.1437 60.3955 36.5782 61.9101C36.5782 61.9101 37.7533 60.8945 39.3303 60.6914L38.9328 60.082Z" fill="#471E6D"/>
<path d="M29.5631 87.2465C33.349 91.9049 38.6103 96.21 38.9327 102.206C37.5368 98.8329 33.4108 97.7775 30.0137 96.4352C24.0412 94.0773 19.0229 89.6132 15.48 84.2616C11.9415 78.91 9.82552 72.6974 8.77414 66.3655C7.28101 57.3887 7.91272 47.9881 11.1905 39.497C14.4684 31.0059 20.4762 23.4907 28.366 18.9516C35.5621 14.8098 43.929 13.2644 52.15 12.1163C57.4467 11.3745 62.8582 10.7696 68.1283 11.6924C75.4747 12.9729 82.238 17.3266 86.4479 23.4819C90.6578 29.6371 59.9912 29.5444 44.7506 36.0617C40.7218 37.7838 36.8874 40.2167 34.2192 43.6918C30.4466 48.6062 27.4118 65.7076 27.4118 65.7076C27.4118 65.7076 24.3769 62.2281 24.0544 52.3948C19.6104 63.8795 21.7882 77.6825 29.5631 87.2465Z" fill="#7843FF"/>
<path d="M31.03 52.8231C31.03 52.8231 31.4055 64.6435 34.807 66.3258C34.807 66.3258 32.1211 57.009 32.9914 52.8408C33.866 48.6769 31.03 52.8231 31.03 52.8231Z" fill="#C2CBE6"/>
<path fill-rule="evenodd" clip-rule="evenodd" d="M31.0299 52.823L32.1034 52.9246C31.909 57.7463 32.819 64.4933 34.3917 65.9725C37.2189 68.6218 42.785 69.134 47.8828 68.6703C48.9077 68.5776 49.9149 68.4452 50.8735 68.2818C54.5047 67.668 57.6765 64.3034 60.2961 58.2806C60.4596 57.9009 60.6186 57.5211 60.7688 57.1458C61.4933 55.3399 63.2515 54.1653 65.1996 54.1874C67.245 54.2095 69.0296 55.5474 69.6525 57.4902C69.7453 57.7861 69.8425 58.0819 69.9485 58.3822C72.0203 64.4579 74.609 67.8844 77.635 68.5688C78.4346 68.7498 79.2739 68.9044 80.1309 69.0192C84.3895 69.5844 89.0588 69.187 91.4752 66.5951C92.8226 65.1512 93.7193 58.4219 93.6531 53.5957L94.5542 53.5163L95.0357 48.5046L92.3852 48.1514C81.01 46.553 73.6416 47.6039 70.2356 48.381L60.1945 48.2706C56.1437 47.414 47.366 46.1865 33.7467 47.5067L30.5749 47.7937L31.0299 52.823ZM72.4709 51.1584C75.1833 50.3548 80.0249 49.3039 87.6584 49.8691C90.1676 50.0546 92.1069 52.5847 92.0318 55.5872C91.917 60.2191 91.3206 64.5816 90.4636 65.5001C88.7142 67.3767 84.7914 69.1429 77.7985 67.5577C73.3633 66.551 71.7111 59.2653 70.7922 54.4171C70.5139 52.9688 71.2605 51.5205 72.4709 51.1584ZM39.3482 49.3395C36.3443 49.4631 33.9721 51.949 33.9898 54.9516C34.0163 59.5835 34.6259 63.9593 35.6287 64.8998C37.674 66.8161 42.3168 68.6795 50.7013 67.2621C56.0201 66.3657 58.1714 59.1199 59.3862 54.2937C59.7485 52.8498 58.8915 51.3838 57.4558 50.9953C54.2354 50.1254 48.4793 48.9597 39.3482 49.3395Z" fill="white"/>
<path d="M30.5659 48.4119L25.9629 53.525L27.2749 56.0022L31.0077 53.2866L30.5659 48.4119Z" fill="#C2CBE6"/>
<path d="M88.7363 22.9387C91.8683 24.9831 94.4747 27.9724 96.1666 31.4651C96.3035 28.3212 95.1461 25.1774 93.3526 22.6296C91.5591 20.0819 89.1648 18.0816 86.6379 16.4125C75.3379 8.94148 60.7114 7.90824 48.9651 13.75C47.737 14.3593 46.4692 15.1144 45.8728 16.4214C44.954 18.426 46.0539 21.0224 47.79 22.347C49.5261 23.6761 51.7128 24.0293 53.8067 24.2634C63.5342 25.3407 73.3853 24.5945 82.777 22.0644C75.5101 23.1771 67.8236 21.5125 61.3872 17.437C64.9787 18.0154 68.5658 18.5938 72.1572 19.1723C76.6101 19.892 81.1778 20.6515 85.1536 23.0182C90.7904 26.374 94.6823 32.9929 95.0534 39.8369C94.2317 33.8141 92.0406 27.9636 88.7363 22.9387Z" fill="#8D6AFF"/>
<path d="M27.7521 66.5197C24.3285 59.7021 22.9193 51.4583 24.0193 43.6958C25.455 33.5622 31.1227 24.4883 38.8446 19.9668C40.7088 26.0117 38.8004 32.7233 36.1057 38.2162C33.411 43.7091 29.8902 48.7075 28.1629 54.7391C27.1999 58.1125 26.9658 62.007 27.7123 65.4556C28.3043 68.1755 28.7946 68.5994 27.7521 66.5197Z" fill="#8D6AFF"/>
<path d="M62.1251 19.1281C72.979 15.7149 85.1096 18.0992 93.8607 25.3716C102.612 32.644 108.147 44.036 102.448 64.9568C102.961 46.1113 97.5229 39.5587 89.3681 32.7764C81.2089 25.9898 72.4268 19.9273 62.1251 19.1281Z" fill="#7843FF"/>
<path d="M97.9424 13.0656C92.2437 15.4103 85.7941 12.6727 79.7023 11.1096C66.6573 7.7626 41.6672 7.16209 38.6324 18.6248C33.1502 31.2841 54.9552 32.0436 62.3149 34.1895C69.9175 36.4061 77.869 31.8449 85.613 31.9597C92.7473 32.0657 100.323 29.2486 106.588 25.7691C92.5971 28.2021 84.4865 17.0308 80.63 14.3947C86.7306 18.0949 92.9903 17.9625 97.9424 13.0656Z" fill="#8D6AFF"/>
<path d="M44.256 13.6838C44.8966 13.6264 45.6476 13.6175 46.0496 14.1209C46.6459 14.8627 45.9524 15.9268 45.2942 16.6113C43.081 18.9029 40.8634 21.1946 38.6502 23.4862C35.4607 26.7846 32.2624 30.0963 29.5235 33.7744C19.5089 47.2109 16.2797 65.2571 20.1981 81.5504C15.4448 72.8077 10.8991 63.7426 9.26022 53.9313C7.62131 44.1156 9.2558 33.3152 15.7408 25.7646C19.1909 21.7465 23.8205 18.8499 28.7681 16.9645C33.7113 15.0791 38.9815 14.1651 44.256 13.6838Z" fill="#8D6AFF"/>
<path d="M20.5028 30.5379C9.03047 42.7557 5.94702 64.1931 7.99676 80.822C4.26393 71.5979 0.769652 62.078 0.252799 52.1431C-0.264055 42.2082 4.0298 31.3151 9.87864 24.8905C13.4392 20.9739 23.6437 27.191 20.5028 30.5379Z" fill="#8D6AFF"/>
<path d="M72.7668 3.03788C69.9881 3.47502 67.289 4.41994 64.8461 5.80642C69.109 5.63863 73.3764 8.03184 75.4482 11.7585C65.3365 10.8004 55.0966 11.2508 45.1085 13.1009C44.4326 11.1006 45.727 8.88846 47.4763 7.70509C49.2212 6.51732 51.3461 6.06252 53.3384 5.36487C56.5985 4.22124 59.6157 2.37997 62.1161 0C61.0073 2.72438 59.0326 5.0911 56.5455 6.66745C61.4137 3.84592 67.1609 2.56101 72.7668 3.03788Z" fill="#8D6AFF"/>
<path d="M42.8954 14.7655C44.4107 13.6616 46.1158 12.0367 45.6873 10.1115C24.2622 1.78384 8.41207 24.2103 6.2298 28.3079C2.97406 34.4278 0.031978 44.6056 0.394217 51.7058C0.871312 48.9505 3.28771 39.0906 10.1702 36.3265C22.2611 31.4694 32.3022 22.4882 42.8954 14.7655Z" fill="#8D6AFF"/>
<path d="M93.198 20.8634C88.3962 20.7309 83.877 18.6071 79.7113 16.2094C75.5455 13.8118 71.5211 11.0742 66.9799 9.50665C62.4387 7.93914 57.1553 7.68304 53.0381 10.1602C55.9979 9.25939 59.2271 9.75834 62.1294 10.8181C65.0318 11.8778 67.7088 13.4762 70.4786 14.8494C77.5423 18.3465 85.3216 20.4086 93.198 20.8634Z" fill="#7843FF"/>
<path d="M43.9732 16.5581C38.3496 15.048 32.2004 15.1274 26.5901 16.7789C20.9798 18.4303 15.935 21.6492 12.3303 25.8793C14.6716 22.5411 17.3 19.3134 20.6441 16.7568C23.9882 14.2046 28.1142 12.3545 32.4699 12.1161C36.8256 11.8776 41.3801 13.4186 43.9732 16.5581Z" fill="#7843FF"/>
<path d="M18.4883 70.3968C18.0201 65.4073 17.8434 60.4001 18.2454 55.4105C18.8727 47.626 20.9622 39.8414 25.2163 33.2932C29.4704 26.7405 36.0216 21.5081 43.633 19.7463C37.8681 23.2743 33.8835 29.0543 30.4731 34.8828C26.5857 41.5281 23.1974 48.5135 21.0903 55.9139C19.6899 60.8328 18.8727 65.9504 18.8638 71.0548C18.8594 73.6334 18.749 73.1919 18.4883 70.3968Z" fill="#7843FF"/>
<path d="M33.835 17.4105C12.5292 28.4626 5.66428 45.9834 6.3225 59.8967C1.14955 40.6539 14.5171 16.81 33.835 17.4105Z" fill="#A690FC"/>
<path d="M99.0467 38.3929C95.8219 33.2974 89.4827 30.5112 83.2098 29.7429C76.9369 28.9746 70.5933 29.924 64.3248 30.6702C58.0519 31.4208 40.0151 30.0167 37.6517 24.6077C37.1039 25.791 39.7721 32.9928 49.822 36.0086C56.2805 37.947 62.9907 38.8875 69.7098 39.722C76.4289 40.5521 83.3247 41.7973 88.9526 45.3386C94.585 48.8798 98.6757 55.2514 97.3902 61.4729C99.1793 57.8257 100.725 54.0239 101.256 50.0411C101.79 46.0583 101.238 41.8503 99.0467 38.3929Z" fill="#8D6AFF"/>
<path d="M50.2152 30.0959C53.7757 34.5512 59.8013 36.4631 65.575 37.1785C71.3487 37.8938 77.2638 37.673 82.9271 38.9932C88.5904 40.3135 94.236 43.6251 96.1223 48.9502C95.7513 43.1924 90.5165 38.6488 84.8576 36.7943C79.2031 34.9398 73.0892 35.1429 67.1256 34.8647C61.1619 34.591 54.8889 33.6858 50.2152 30.0959Z" fill="#7843FF"/>
<path d="M105.103 26.5903C90.4547 33.2445 76.2788 27.6986 68.6585 24.2368C82.2204 35.4832 100.24 33.3637 105.103 26.5903Z" fill="#A690FC"/>
<path d="M64.771 85.339C69.7187 85.1757 71.8789 80.8264 73.4117 78.8261C74.7723 77.0511 74.8695 76.6758 74.8695 76.6758C74.8695 76.6758 70.3283 78.9365 64.6959 79.2942" fill="#EA4079"/>
<path d="M64.7711 85.3392C58.4275 85.4055 55.534 81.1622 53.5196 79.2326C51.7261 77.5193 51.5936 77.1484 51.5936 77.1484C51.5936 77.1484 57.4734 79.1972 64.7005 79.29" fill="#EA4079"/>
<path d="M74.8697 76.6758C74.8697 76.6758 72.2059 81.7581 64.7314 81.9082C57.2569 82.0583 53.4313 78.0888 53.4313 78.0888C53.4313 78.0888 72.1971 78.0402 74.8697 76.6758Z" fill="white"/>
<mask id="mask5" mask-type="alpha" maskUnits="userSpaceOnUse" x="53" y="76" width="22" height="6">
<path fill-rule="evenodd" clip-rule="evenodd" d="M74.8697 76.6758C74.8697 76.6758 72.2059 81.7581 64.7314 81.9082C57.2569 82.0583 53.4313 78.0888 53.4313 78.0888C53.4313 78.0888 72.1971 78.0402 74.8697 76.6758Z" fill="white"/>
</mask>
<g mask="url(#mask5)">
<path d="M70.3152 82.1729L75.4263 80.7599L75.36 75.6511L71.0883 76.3709L70.3152 82.1729Z" fill="#8B2828"/>
</g>
<path d="M64.696 79.1931C55.5384 79.4139 52.4726 78.2967 51.5891 77.1531C51.5891 77.1531 54.5621 77.7227 57.7207 77.1531C60.4772 76.6586 62.2487 76.5173 64.6606 76.4775" fill="#EA4079"/>
<path d="M64.696 79.1925C71.8392 79.0821 74.207 77.8546 74.8696 76.6757C74.8696 76.6757 72.5637 77.3512 70.0898 76.8964C67.9297 76.499 66.547 76.424 64.6651 76.4726" fill="#EA4079"/>
<path d="M61.9041 77.7177C61.9085 78.146 63.1455 77.6912 64.6783 77.6603C66.2112 77.6294 67.457 78.0312 67.4526 77.6029C67.4482 77.1746 66.2024 76.8522 64.6695 76.8832C63.1366 76.9141 61.8953 77.2894 61.9041 77.7177Z" fill="#FF739F"/>
<ellipse cx="64.7686" cy="83.6308" rx="2.51807" ry="0.834559" transform="rotate(-1.22619 64.7686 83.6308)" fill="#FF739F"/>
<path fill-rule="evenodd" clip-rule="evenodd" d="M47.62 94.6108C47.62 94.6108 50.0241 96.896 52.754 98.4884C55.4839 100.081 58.2138 100.791 58.2138 100.791L52.9169 110.501L44.9716 101.497L45.8544 98.1421L47.62 94.6108Z" fill="white"/>
<path fill-rule="evenodd" clip-rule="evenodd" d="M62.8044 96.553C62.8044 96.553 63.3731 99.0839 62.2747 99.9077C61.1763 100.731 60.8622 100.79 60.8622 100.79L67.0419 109.619L67.9247 104.322L62.8044 96.553Z" fill="white"/>
<path opacity="0.194057" fill-rule="evenodd" clip-rule="evenodd" d="M45.8544 103.439L52.0341 110.501L57.331 102.556L52.9169 114.033L45.5561 104.316L45.8544 103.439Z" fill="black"/>
<path opacity="0.194057" fill-rule="evenodd" clip-rule="evenodd" d="M61.1246 102.406L68.298 113.883L69.9528 106.649L69.1947 106.232L67.4013 110.057L61.1246 102.406Z" fill="black"/>
<path d="M70.535 130.539C66.8629 117.855 57.1519 102.406 57.1519 102.406L62.4488 102.848C69.2147 113.024 78.0672 125.105 79.5275 130.75C80.9879 136.394 80.5465 138.602 79.5275 141.255C78.5086 143.908 76.1136 146.547 76.1136 146.547C76.1136 146.547 74.6521 144.214 73.484 141.255C72.3158 138.296 74.2072 143.222 70.535 130.539Z" fill="#FF4343"/>
<path d="M69.9527 118.297L61.1246 104.715L62.3017 104.172L69.9527 118.297Z" fill="#EE0000"/>
<path d="M58.0128 101.328L58.6203 100.974C58.9898 100.759 59.4247 100.685 59.8444 100.767L61.1606 101.022C61.4971 101.087 61.8074 101.249 62.0535 101.488L62.9944 102.4C63.1081 102.511 63.2031 102.639 63.2757 102.779L63.6076 103.423C64.0322 104.247 63.32 105.197 62.4104 105.02C62.2539 104.99 62.0928 104.994 61.9378 105.031L59.7047 105.573C58.8438 105.781 57.9615 105.32 57.6419 104.494L57.254 103.49C56.9409 102.681 57.2626 101.764 58.0128 101.328Z" fill="#EF0B0B"/>
<defs>
<filter id="filter1_i" x="57.5412" y="284.792" width="41.5376" height="109.076" filterUnits="userSpaceOnUse" color-interpolation-filters="sRGB">
<feFlood flood-opacity="0" result="BackgroundImageFix"/>
<feBlend mode="normal" in="SourceGraphic" in2="BackgroundImageFix" result="shape"/>
<feColorMatrix in="SourceAlpha" type="matrix" values="0 0 0 0 0 0 0 0 0 0 0 0 0 0 0 0 0 0 127 0" result="hardAlpha"/>
<feOffset dx="-1.50444" dy="9"/>
<feComposite in2="hardAlpha" operator="arithmetic" k2="-1" k3="1"/>
<feColorMatrix type="matrix" values="0 0 0 0 0.87451 0 0 0 0 0.564706 0 0 0 0 0.458824 0 0 0 1 0"/>
<feBlend mode="normal" in2="shape" result="effect1_innerShadow"/>
</filter>
<filter id="filter2_d" x="21.5589" y="102.327" width="65.9092" height="90.5789" filterUnits="userSpaceOnUse" color-interpolation-filters="sRGB">
<feFlood flood-opacity="0" result="BackgroundImageFix"/>
<feColorMatrix in="SourceAlpha" type="matrix" values="0 0 0 0 0 0 0 0 0 0 0 0 0 0 0 0 0 0 127 0"/>
<feOffset dy="1.50444"/>
<feColorMatrix type="matrix" values="0 0 0 0 0 0 0 0 0 0 0 0 0 0 0 0 0 0 1 0"/>
<feBlend mode="normal" in2="BackgroundImageFix" result="effect1_dropShadow"/>
<feBlend mode="normal" in="SourceGraphic" in2="effect1_dropShadow" result="shape"/>
</filter>
<linearGradient id="paint0_linear" x1="84.3339" y1="44.8608" x2="68.7082" y2="55.8803" gradientUnits="userSpaceOnUse">
<stop stop-color="#57396D" stop-opacity="0.3"/>
<stop offset="0.3595" stop-color="#CA8E76"/>
<stop offset="0.5272" stop-color="#CD9379"/>
<stop offset="0.7205" stop-color="#D5A181"/>
<stop offset="0.9258" stop-color="#E3B88F"/>
<stop offset="0.9932" stop-color="#E8C195"/>
</linearGradient>
<linearGradient id="paint1_linear" x1="31.4788" y1="58.4548" x2="47.1199" y2="70.8961" gradientUnits="userSpaceOnUse">
<stop stop-color="#57396D" stop-opacity="0.3"/>
<stop offset="0.3595" stop-color="#CA8E76"/>
<stop offset="0.5272" stop-color="#CD9379"/>
<stop offset="0.7205" stop-color="#D5A181"/>
<stop offset="0.9258" stop-color="#E3B88F"/>
<stop offset="0.9932" stop-color="#E8C195"/>
</linearGradient>
<radialGradient id="paint2_radial" cx="0" cy="0" r="1" gradientUnits="userSpaceOnUse" gradientTransform="translate(78.8552 57.5982) rotate(16.6209) scale(4.3036 4.20258)">
<stop stop-color="#8EFFFF"/>
<stop offset="0.428" stop-color="#8DFDFF"/>
<stop offset="0.5822" stop-color="#89F6FF"/>
<stop offset="0.6921" stop-color="#83EBFE"/>
<stop offset="0.7809" stop-color="#7ADAFD"/>
<stop offset="0.857" stop-color="#6EC4FC"/>
<stop offset="0.9244" stop-color="#5FA8FB"/>
<stop offset="0.9838" stop-color="#4D89F9"/>
<stop offset="1" stop-color="#487FF9"/>
</radialGradient>
<radialGradient id="paint3_radial" cx="0" cy="0" r="1" gradientUnits="userSpaceOnUse" gradientTransform="translate(45.8276 57.5668) rotate(161.616) scale(4.68766 4.68595)">
<stop stop-color="#8EFFFF"/>
<stop offset="0.428" stop-color="#8DFDFF"/>
<stop offset="0.5822" stop-color="#89F6FF"/>
<stop offset="0.6921" stop-color="#83EBFE"/>
<stop offset="0.7809" stop-color="#7ADAFD"/>
<stop offset="0.857" stop-color="#6EC4FC"/>
<stop offset="0.9244" stop-color="#5FA8FB"/>
<stop offset="0.9838" stop-color="#4D89F9"/>
<stop offset="1" stop-color="#487FF9"/>
</radialGradient>
</defs>
</svg>
